<?xml version="1.0" encoding="UTF-8"?>
<svg xmlns="http://www.w3.org/2000/svg" xmlns:xlink="http://www.w3.org/1999/xlink" width="50pt" height="50pt" viewBox="0 0 50 50" version="1.1">
<g id="surface3578016">
<path style=" stroke:none;fill-rule:nonzero;fill:rgb(96.470588%,56.470588%,67.058824%);fill-opacity:1;" d="M 25 48 C 12.296875 48 2 37.703125 2 25 C 2 12.296875 12.296875 2 25 2 C 37.703125 2 48 12.296875 48 25 C 48 37.703125 37.703125 48 25 48 Z M 25 48 "/>
<path style=" stroke:none;fill-rule:nonzero;fill:rgb(100%,100%,100%);fill-opacity:1;" d="M 19.601562 11.800781 C 15.296875 11.800781 11.800781 15.296875 11.800781 19.601562 L 11.800781 30.398438 C 11.800781 34.703125 15.296875 38.199219 19.601562 38.199219 L 30.398438 38.199219 C 34.703125 38.199219 38.199219 34.703125 38.199219 30.398438 L 38.199219 19.601562 C 38.199219 15.296875 34.703125 11.800781 30.398438 11.800781 Z M 32.199219 16.601562 C 32.859375 16.601562 33.398438 17.140625 33.398438 17.800781 C 33.398438 18.460938 32.859375 19 32.199219 19 C 31.539062 19 31 18.460938 31 17.800781 C 31 17.140625 31.539062 16.601562 32.199219 16.601562 Z M 25 18.398438 C 28.640625 18.398438 31.601562 21.359375 31.601562 25 C 31.601562 28.640625 28.640625 31.601562 25 31.601562 C 21.359375 31.601562 18.398438 28.640625 18.398438 25 C 18.398438 21.359375 21.359375 18.398438 25 18.398438 Z M 25 19.601562 C 22.023438 19.601562 19.601562 22.023438 19.601562 25 C 19.601562 27.976562 22.023438 30.398438 25 30.398438 C 27.976562 30.398438 30.398438 27.976562 30.398438 25 C 30.398438 22.023438 27.976562 19.601562 25 19.601562 Z M 25 19.601562 "/>
</g>
</svg>
