<svg xmlns="http://www.w3.org/2000/svg" xmlns:xlink="http://www.w3.org/1999/xlink" version="1.1" width="50pt" height="50pt" viewBox="0 0 50 50">
<g>
<path transform="matrix(1,0,0,-1,0,50)" d="M25 44.199C20.59 44.199 17 40.609 17 36.199 17 32.629 19.359 29.594 22.602 28.57V10.402L25 5.809 27.398 10.402V28.57C30.641 29.594 33 32.629 33 36.199 33 40.609 29.41 44.199 25 44.199ZM25 42.602C28.543 42.602 31.398 39.742 31.398 36.199 31.398 32.656 28.543 29.801 25 29.801 21.457 29.801 18.602 32.656 18.602 36.199 18.602 39.742 21.457 42.602 25 42.602ZM25 41C22.359 41 20.199 38.84 20.199 36.199 20.195 35.914 20.348 35.645 20.598 35.496 20.848 35.352 21.152 35.352 21.402 35.496 21.652 35.645 21.805 35.914 21.801 36.199 21.801 37.977 23.227 39.398 25 39.398 25.289 39.398 25.555 39.547 25.703 39.797 25.848 40.047 25.848 40.352 25.703 40.602 25.555 40.852 25.289 41.004 25 41ZM24.199 28.199H25.801V10.797L25 9.262 24.199 10.797ZM24.199 28.199"/>
</g>
</svg>
