<svg xmlns="http://www.w3.org/2000/svg" xmlns:xlink="http://www.w3.org/1999/xlink" version="1.1" width="50pt" height="50pt" viewBox="0 0 50 50">
<g>
<path transform="matrix(1,0,0,-1,0,50)" d="M14.473 42.609C13.855 42.66 13.172 42.48 12.539 42.039 11.984 41.648 10.785 40.695 9.664 39.617 9.102 39.082 8.57 38.523 8.156 37.973 7.742 37.422 7.379 36.918 7.398 36.188 7.422 35.531 7.488 33.59 8.883 30.617 10.281 27.645 12.992 23.566 18.273 18.277 23.562 12.992 27.641 10.281 30.613 8.883 33.586 7.488 35.527 7.422 36.184 7.398 36.914 7.379 37.414 7.742 37.965 8.156 38.516 8.57 39.074 9.102 39.613 9.664 40.688 10.785 41.641 11.984 42.027 12.539 42.914 13.801 42.766 15.289 41.781 15.977 41.164 16.414 35.473 20.199 34.617 20.727 33.746 21.258 32.746 21.016 31.852 20.543 31.148 20.172 29.246 19.082 28.703 18.77 28.293 19.027 26.742 20.062 23.398 23.402 20.055 26.742 19.023 28.297 18.766 28.707 19.078 29.25 20.164 31.145 20.539 31.859 21.008 32.75 21.273 33.758 20.711 34.633 20.477 35.008 19.414 36.629 18.336 38.258 17.258 39.883 16.238 41.43 15.973 41.797V41.801C15.625 42.277 15.086 42.559 14.473 42.609ZM14.324 40.977C14.543 40.945 14.676 40.859 14.676 40.859 14.805 40.68 15.926 39 17 37.375 18.074 35.746 19.172 34.078 19.363 33.773 19.395 33.727 19.438 33.195 19.125 32.605V32.602C18.773 31.93 17.125 29.055 17.125 29.055L16.898 28.648 17.133 28.25C17.133 28.25 18.359 26.18 22.266 22.273 26.176 18.367 28.246 17.133 28.246 17.133L28.648 16.898 29.051 17.129C29.051 17.129 31.922 18.773 32.602 19.129 33.191 19.438 33.723 19.398 33.785 19.359 34.336 19.02 40.484 14.934 40.863 14.668 40.875 14.66 41.211 14.152 40.723 13.461H40.719C40.426 13.039 39.461 11.816 38.461 10.773 37.957 10.25 37.441 9.762 37.004 9.434 36.566 9.105 36.176 9.004 36.238 9 35.555 9.023 34.055 9.039 31.293 10.336 28.535 11.629 24.598 14.219 19.406 19.414 14.219 24.602 11.629 28.539 10.332 31.301 9.039 34.059 9.023 35.562 9 36.242 9.004 36.18 9.105 36.57 9.434 37.008 9.762 37.445 10.246 37.965 10.77 38.469 11.816 39.473 13.035 40.434 13.457 40.727 13.805 40.969 14.105 41 14.324 40.977ZM14.324 40.977"/>
</g>
</svg>
