<svg width="35" height="24" viewBox="0 0 35 24" fill="none" xmlns="http://www.w3.org/2000/svg">
<g clip-path="url(#clip0_606_22)">
<path d="M12 11.9999C13.1867 11.9999 14.3467 11.648 15.3334 10.9888C16.3201 10.3295 17.0892 9.3924 17.5433 8.29604C17.9974 7.19969 18.1162 5.99329 17.8847 4.8294C17.6532 3.66551 17.0818 2.59642 16.2426 1.7573C15.4035 0.918186 14.3344 0.346741 13.1705 0.11523C12.0067 -0.116281 10.8003 0.00253868 9.7039 0.456664C8.60754 0.91079 7.67047 1.67983 7.01118 2.66652C6.35189 3.65322 6 4.81325 6 5.99994C6.00159 7.59075 6.63424 9.11595 7.75911 10.2408C8.88399 11.3657 10.4092 11.9984 12 11.9999ZM12 1.99994C12.7911 1.99994 13.5645 2.23454 14.2223 2.67406C14.8801 3.11359 15.3928 3.7383 15.6955 4.46921C15.9983 5.20011 16.0775 6.00438 15.9231 6.7803C15.7688 7.55623 15.3878 8.26896 14.8284 8.82837C14.269 9.38778 13.5563 9.76874 12.7804 9.92308C12.0044 10.0774 11.2002 9.99821 10.4693 9.69546C9.73836 9.39271 9.11365 8.88002 8.67412 8.22222C8.2346 7.56443 8 6.79107 8 5.99994C8 4.93908 8.42143 3.92166 9.17157 3.17151C9.92172 2.42137 10.9391 1.99994 12 1.99994V1.99994Z" fill="#374957"/>
<path d="M12 14.0006C9.61386 14.0033 7.32622 14.9523 5.63896 16.6396C3.95171 18.3268 3.00265 20.6145 3 23.0006C3 23.2658 3.10536 23.5202 3.29289 23.7077C3.48043 23.8953 3.73478 24.0006 4 24.0006C4.26522 24.0006 4.51957 23.8953 4.70711 23.7077C4.89464 23.5202 5 23.2658 5 23.0006C5 21.1441 5.7375 19.3636 7.05025 18.0509C8.36301 16.7381 10.1435 16.0006 12 16.0006C13.8565 16.0006 15.637 16.7381 16.9497 18.0509C18.2625 19.3636 19 21.1441 19 23.0006C19 23.2658 19.1054 23.5202 19.2929 23.7077C19.4804 23.8953 19.7348 24.0006 20 24.0006C20.2652 24.0006 20.5196 23.8953 20.7071 23.7077C20.8946 23.5202 21 23.2658 21 23.0006C20.9974 20.6145 20.0483 18.3268 18.361 16.6396C16.6738 14.9523 14.3861 14.0033 12 14.0006V14.0006Z" fill="#374957"/>
</g>
<g clip-path="url(#clip1_606_22)">
<path d="M26 14.9999C26.89 14.9999 27.76 14.736 28.5001 14.2416C29.2401 13.7471 29.8169 13.0443 30.1575 12.222C30.4981 11.3997 30.5872 10.4949 30.4135 9.62203C30.2399 8.74912 29.8113 7.9473 29.182 7.31796C28.5526 6.68862 27.7508 6.26004 26.8779 6.08641C26.005 5.91277 25.1002 6.00189 24.2779 6.34248C23.4557 6.68308 22.7529 7.25985 22.2584 7.99987C21.7639 8.7399 21.5 9.60993 21.5 10.4999C21.5012 11.693 21.9757 12.837 22.8193 13.6806C23.663 14.5243 24.8069 14.9987 26 14.9999ZM26 7.49994C26.5933 7.49994 27.1734 7.67589 27.6667 8.00553C28.1601 8.33518 28.5446 8.80371 28.7716 9.35189C28.9987 9.90007 29.0581 10.5033 28.9424 11.0852C28.8266 11.6672 28.5409 12.2017 28.1213 12.6213C27.7018 13.0408 27.1672 13.3265 26.5853 13.4423C26.0033 13.5581 25.4001 13.4986 24.8519 13.2716C24.3038 13.0445 23.8352 12.66 23.5056 12.1667C23.1759 11.6733 23 11.0933 23 10.4999C23 9.70429 23.3161 8.94123 23.8787 8.37862C24.4413 7.81601 25.2044 7.49994 26 7.49994V7.49994Z" fill="#374957"/>
<path d="M26 16.5005C24.2104 16.5024 22.4947 17.2142 21.2292 18.4797C19.9638 19.7451 19.252 21.4609 19.25 23.2505C19.25 23.4494 19.329 23.6401 19.4697 23.7808C19.6103 23.9214 19.8011 24.0005 20 24.0005C20.1989 24.0005 20.3897 23.9214 20.5303 23.7808C20.671 23.6401 20.75 23.4494 20.75 23.2505C20.75 21.8581 21.3031 20.5227 22.2877 19.5381C23.2723 18.5536 24.6076 18.0005 26 18.0005C27.3924 18.0005 28.7277 18.5536 29.7123 19.5381C30.6969 20.5227 31.25 21.8581 31.25 23.2505C31.25 23.4494 31.329 23.6401 31.4697 23.7808C31.6103 23.9214 31.8011 24.0005 32 24.0005C32.1989 24.0005 32.3897 23.9214 32.5303 23.7808C32.671 23.6401 32.75 23.4494 32.75 23.2505C32.748 21.4609 32.0362 19.7451 30.7708 18.4797C29.5053 17.2142 27.7896 16.5024 26 16.5005V16.5005Z" fill="#374957"/>
</g>
<defs>
<clipPath id="clip0_606_22">
<rect width="24" height="24" fill="white"/>
</clipPath>
<clipPath id="clip1_606_22">
<rect width="18" height="18" fill="white" transform="translate(17 6)"/>
</clipPath>
</defs>
</svg>
