<svg xmlns="http://www.w3.org/2000/svg" xmlns:xlink="http://www.w3.org/1999/xlink" version="1.1" width="50pt" height="50pt" viewBox="0 0 50 50">
<g>
<path fill="#fff" transform="matrix(1,0,0,-1,0,50)" d="M21.5 31.301C19.508 31.301 17.051 30.383 14.586 29.418 12.168 28.469 9.766 27.449 8.156 27.102 8.152 27.098 8.141 27.102 8.133 27.102 8.113 27.102 8.09 27.102 8.07 27.102 7.973 27.074 7.883 27.031 7.805 26.969 7.793 26.965 7.777 26.953 7.762 26.945 7.738 26.93 7.715 26.906 7.695 26.883 7.684 26.875 7.668 26.867 7.652 26.859 7.652 26.852 7.652 26.844 7.652 26.836 7.637 26.824 7.625 26.809 7.609 26.793 7.609 26.785 7.609 26.781 7.609 26.773 7.582 26.73 7.559 26.688 7.543 26.641 7.535 26.633 7.531 26.625 7.523 26.617 7.523 26.605 7.523 26.59 7.523 26.574 7.512 26.539 7.504 26.504 7.5 26.465 7.5 26.457 7.5 26.453 7.5 26.445 7.5 26.43 7.5 26.414 7.5 26.398 7.5 26.391 7.5 26.387 7.5 26.379 7.5 26.363 7.5 26.348 7.5 26.336 7.5 26.328 7.5 26.32 7.5 26.312 7.5 26.297 7.5 26.281 7.5 26.27 7.508 26.262 7.516 26.254 7.523 26.246 7.523 26.234 7.523 26.219 7.523 26.203 7.527 26.188 7.535 26.172 7.543 26.16 7.551 26.145 7.559 26.129 7.566 26.117 7.566 26.109 7.566 26.102 7.566 26.094 7.574 26.086 7.578 26.078 7.586 26.07 7.594 26.059 7.602 26.043 7.609 26.027 7.609 26.02 7.609 26.016 7.609 26.008 7.617 26 7.625 25.992 7.633 25.984 7.641 25.977 7.645 25.969 7.652 25.961 7.66 25.949 7.668 25.934 7.676 25.918 7.688 25.91 7.703 25.902 7.719 25.898 7.719 25.891 7.719 25.883 7.719 25.875 7.734 25.867 7.75 25.859 7.762 25.852 7.77 25.844 7.777 25.84 7.785 25.832 7.797 25.824 7.812 25.816 7.828 25.809 7.836 25.801 7.844 25.797 7.852 25.789 7.859 25.789 7.863 25.789 7.871 25.789 7.879 25.781 7.887 25.773 7.895 25.766 7.906 25.758 7.922 25.75 7.938 25.742 9.383 25.16 11.547 22.918 14.305 20.777 17.059 18.637 20.539 16.602 25 16.602 29.461 16.602 32.961 18.633 35.719 20.777 38.477 22.922 40.625 25.164 42.062 25.742 42.094 25.758 42.121 25.77 42.148 25.789 42.172 25.793 42.195 25.801 42.215 25.809 42.535 25.965 42.688 26.336 42.57 26.672 42.453 27.004 42.105 27.199 41.758 27.121 40.164 27.465 37.793 28.461 35.414 29.398 32.945 30.367 30.484 31.301 28.5 31.301 27.566 31.301 26.66 30.906 25.918 30.535 25.398 30.273 25.211 30.145 25 30.008 24.789 30.145 24.602 30.273 24.082 30.535 23.34 30.906 22.434 31.301 21.5 31.301ZM21.5 29.898C21.965 29.898 22.809 29.594 23.469 29.266 24.129 28.938 24.605 28.609 24.605 28.609 24.844 28.449 25.156 28.449 25.395 28.609 25.395 28.609 25.871 28.938 26.531 29.266 27.191 29.594 28.035 29.898 28.5 29.898 30.012 29.898 32.469 29.066 34.91 28.105 36.492 27.484 38 26.895 39.414 26.422 36.445 25.609 30.781 24.301 25 24.301 19.188 24.301 13.5 25.609 10.539 26.422 11.969 26.902 13.496 27.5 15.09 28.129 17.527 29.082 19.973 29.898 21.5 29.898ZM11.898 24.648C15.145 23.848 19.992 22.898 25 22.898 30.027 22.898 34.898 23.848 38.148 24.648 37.137 23.773 36.051 22.812 34.844 21.871 32.199 19.816 29.043 18 25 18 20.957 18 17.801 19.82 15.156 21.871 13.957 22.805 12.898 23.777 11.898 24.648ZM11.898 24.648"/>
</g>
</svg>
