<svg xmlns="http://www.w3.org/2000/svg" xmlns:xlink="http://www.w3.org/1999/xlink" version="1.1" width="50pt" height="50pt" viewBox="0 0 50 50">
<g>
<path fill="white" transform="matrix(1,0,0,-1,0,50)" d="M25 41.102C24.965 41.098 24.926 41.094 24.891 41.09 16.059 41.031 8.898 33.848 8.898 25 8.898 16.117 16.117 8.898 25 8.898 33.883 8.898 41.102 16.117 41.102 25 41.102 33.848 33.941 41.027 25.109 41.09 25.074 41.094 25.039 41.098 25 41.102ZM25 39.699C33.129 39.699 39.699 33.129 39.699 25 39.699 16.871 33.129 10.301 25 10.301 16.871 10.301 10.301 16.871 10.301 25 10.301 33.129 16.871 39.699 25 39.699ZM19.398 29.898C18.238 29.898 17.301 28.961 17.301 27.801 17.301 26.641 18.238 25.699 19.398 25.699 20.559 25.699 21.5 26.641 21.5 27.801 21.5 28.961 20.559 29.898 19.398 29.898ZM30.602 29.898C29.441 29.898 28.5 28.961 28.5 27.801 28.5 26.641 29.441 25.699 30.602 25.699 31.762 25.699 32.699 26.641 32.699 27.801 32.699 28.961 31.762 29.898 30.602 29.898ZM15.871 22.207C15.609 22.199 15.375 22.047 15.262 21.812 15.148 21.578 15.176 21.301 15.328 21.094 15.328 21.094 18.992 15.898 25 15.898 31.008 15.898 34.672 21.094 34.672 21.094 34.895 21.406 34.824 21.844 34.508 22.07 34.191 22.297 33.754 22.223 33.531 21.906 33.531 21.906 30.191 17.301 25 17.301 19.809 17.301 16.469 21.906 16.469 21.906 16.336 22.102 16.109 22.215 15.871 22.207ZM15.871 22.207"/>
</g>
</svg>
