<svg xmlns="http://www.w3.org/2000/svg" xmlns:xlink="http://www.w3.org/1999/xlink" version="1.1" width="50pt" height="50pt" viewBox="0 0 50 50">
<g>
<path fill="white" transform="matrix(1,0,0,-1,0,50)" d="M26.051 41.102C24.32 41.102 22.898 39.68 22.898 37.949 22.898 36.219 24.32 34.801 26.051 34.801 27.781 34.801 29.199 36.219 29.199 37.949 29.199 39.68 27.781 41.102 26.051 41.102ZM26.051 39.699C27.023 39.699 27.801 38.922 27.801 37.949 27.801 36.977 27.023 36.199 26.051 36.199 25.078 36.199 24.301 36.977 24.301 37.949 24.301 38.922 25.078 39.699 26.051 39.699ZM20.449 36.199C18.719 36.199 17.301 34.781 17.301 33.051 17.301 31.32 18.719 29.898 20.449 29.898 22.18 29.898 23.602 31.32 23.602 33.051 23.602 34.781 22.18 36.199 20.449 36.199ZM20.449 34.801C21.422 34.801 22.199 34.023 22.199 33.051 22.199 32.078 21.422 31.301 20.449 31.301 19.477 31.301 18.699 32.078 18.699 33.051 18.699 34.023 19.477 34.801 20.449 34.801ZM31.246 34.766C31.094 34.762 30.938 34.742 30.777 34.703L25.48 33.648C25.449 33.641 25.418 33.633 25.387 33.621 24.758 33.402 24.266 32.895 24.07 32.258 24.062 32.234 24.055 32.211 24.051 32.188L23.645 30.172 20.848 28.84C20.832 28.832 20.82 28.824 20.805 28.816 20.492 28.637 20.23 28.379 20.047 28.074 20.043 28.074 20.043 28.07 20.043 28.07L17.941 24.555 15.758 23.422 15.82 23.449C14.75 23.02 14.223 21.789 14.648 20.719 14.977 19.906 15.762 19.398 16.602 19.398 16.859 19.398 17.125 19.449 17.375 19.551 17.395 19.555 17.414 19.562 17.43 19.574L20.23 20.977C20.633 21.141 20.992 21.324 21.164 21.883L21.098 21.73 22.715 24.441 23.484 23.406C23.477 23.359 23.488 23.383 23.457 23.262 23.395 23.004 23.254 22.59 22.945 22.039 22.328 20.945 21.027 19.309 18.293 17.344 14.793 14.828 11.625 14.496 11.625 14.496 11.27 14.457 11 14.156 11 13.801 11 13.801 10.996 12.902 11.496 11.953 12 11 13.074 9.961 14.949 9.664 16.465 9.418 17.434 9.895 17.934 10.191 18.414 9.781 19.562 8.898 21.5 8.898 23.301 8.898 24.379 9.645 24.941 10.102 25.09 9.938 25.059 9.887 25.312 9.719 25.957 9.289 26.98 8.898 28.5 8.898 30.016 8.898 31.043 9.289 31.688 9.719 31.977 9.91 31.957 9.973 32.109 10.156 32.234 10.082 32.215 10.066 32.391 9.996 32.922 9.793 33.711 9.602 34.801 9.602 36.336 9.602 37.414 10.219 38.055 10.848 38.699 11.477 38.957 12.152 38.957 12.152 39.059 12.426 38.98 12.73 38.766 12.926 37.316 14.211 35.992 15.57 34.801 16.902V18.895C34.801 19.312 34.723 19.727 34.578 20.121 34.574 20.129 34.574 20.133 34.57 20.141L32.832 24.406V24.41C32.703 24.766 32.672 25.145 32.742 25.516 33.105 25.199 33.582 25 34.102 25H34.363C34.895 25 35.359 25.117 35.707 25.379 36.059 25.637 36.242 25.969 36.391 26.262 36.633 26.746 36.902 27.52 37.141 28.219 37.293 28.668 37.34 28.824 37.414 29.055 37.477 29.195 37.527 29.336 37.559 29.488L37.566 29.516H37.562C37.586 29.641 37.602 29.77 37.602 29.898 37.602 31.051 36.652 32 35.5 32 35.465 32 35.43 31.996 35.395 31.992L34.641 31.875C34.551 32.004 34.32 32.332 33.98 32.805 33.781 33.086 33.578 33.371 33.414 33.598 33.25 33.828 33.152 33.961 33.07 34.066 32.703 34.527 32.219 34.641 31.805 34.711 31.602 34.742 31.422 34.766 31.246 34.766ZM31.109 33.344C31.027 33.316 31.352 33.363 31.586 33.324 31.82 33.289 31.996 33.172 31.977 33.191 31.969 33.207 32.113 33.008 32.277 32.777 32.441 32.555 32.641 32.27 32.84 31.992 32.969 31.812 32.98 31.797 33.094 31.641L30.895 31.301H26.75C26.734 31.301 26.719 31.301 26.699 31.301 26.199 31.262 25.707 31.156 25.227 30.938L25.414 31.848C25.48 32.059 25.637 32.215 25.84 32.293L31.051 33.324C31.07 33.332 31.094 33.336 31.113 33.344ZM35.516 30.594C35.902 30.586 36.199 30.289 36.199 29.898 36.199 29.844 36.18 29.797 36.172 29.746 36.16 29.723 36.125 29.617 36.113 29.574 35.996 29.352 35.777 29.199 35.5 29.199 35.465 29.199 35.43 29.195 35.395 29.191L30.895 28.5H27.363C27.156 28.5 26.965 28.41 26.828 28.254 26.699 28.098 26.637 27.891 26.672 27.688L27.055 25.32C26.652 24.934 26.031 24.648 25.438 24.496 25.082 24.402 24.766 24.355 24.539 24.332L23.211 26.117C23.07 26.305 22.844 26.41 22.613 26.398 22.379 26.387 22.168 26.258 22.047 26.059L19.895 22.453C19.867 22.402 19.848 22.352 19.828 22.301 19.902 22.535 19.801 22.309 19.66 22.25 19.641 22.242 19.621 22.234 19.605 22.227L16.848 20.848C16.762 20.812 16.68 20.801 16.602 20.801 16.324 20.801 16.062 20.961 15.949 21.242 15.805 21.609 15.973 22.004 16.336 22.148 16.359 22.16 16.383 22.168 16.402 22.18L18.766 23.402C18.879 23.465 18.977 23.555 19.043 23.664L21.242 27.352C21.305 27.457 21.391 27.539 21.496 27.594L25.539 29.527C25.562 29.535 25.582 29.547 25.602 29.562 25.969 29.781 26.309 29.863 26.793 29.898H30.949C30.984 29.898 31.02 29.902 31.059 29.91ZM35.5 27.793C35.359 27.406 35.223 27.062 35.137 26.891 35.02 26.656 34.941 26.551 34.875 26.504 34.812 26.457 34.707 26.398 34.363 26.398H34.102C33.703 26.398 33.398 26.703 33.398 27.102V27.469ZM31.805 27.223 31.43 26.094C31.43 26.082 31.426 26.07 31.422 26.059 31.23 25.352 31.266 24.602 31.523 23.918 31.523 23.91 31.527 23.902 31.531 23.898L33.273 19.609 33.266 19.629C33.355 19.395 33.398 19.145 33.398 18.895V18.543C30.383 22.18 28.527 25.246 28.469 25.352L28.184 27.102H30.949C30.984 27.102 31.02 27.102 31.059 27.109ZM27.668 23.988C28.727 22.324 32.254 17.02 37.406 12.309 37.324 12.16 37.328 12.094 37.078 11.852 36.648 11.43 35.977 11 34.801 11 33.875 11 33.266 11.16 32.898 11.305 32.535 11.445 32.469 11.523 32.469 11.523 32.305 11.668 32.082 11.727 31.867 11.688 31.656 11.645 31.473 11.508 31.375 11.312 31.375 11.312 31.316 11.152 30.91 10.883 30.508 10.613 29.781 10.301 28.5 10.301 27.219 10.301 26.492 10.613 26.09 10.883 25.684 11.152 25.625 11.312 25.625 11.312 25.523 11.516 25.332 11.656 25.113 11.691 24.891 11.727 24.664 11.652 24.504 11.496 24.504 11.496 23.289 10.301 21.5 10.301 19.711 10.301 18.496 11.496 18.496 11.496 18.25 11.742 17.855 11.77 17.578 11.559 17.578 11.559 16.609 10.816 15.168 11.047 13.684 11.285 13.074 11.969 12.738 12.605 12.547 12.969 12.582 13.062 12.547 13.285 13.473 13.441 15.977 13.953 19.109 16.207 21.973 18.266 23.43 20.043 24.168 21.355 24.535 22.008 24.723 22.543 24.816 22.934 24.82 22.945 24.82 22.949 24.824 22.957 25.09 22.992 25.418 23.047 25.789 23.141 26.383 23.293 27.074 23.539 27.668 23.988ZM27.668 23.988"/>
</g>
</svg>
