<svg xmlns="http://www.w3.org/2000/svg" xmlns:xlink="http://www.w3.org/1999/xlink" version="1.1" width="50pt" height="50pt" viewBox="0 0 50 50">
<g>
<path fill="white" transform="matrix(1,0,0,-1,0,50)" d="M23.141 41.801C20.406 41.801 18.633 41.055 17.496 39.918 16.359 38.785 15.883 37.363 15.461 36.113 14.734 33.93 9.469 18.461 9.469 18.461 9.445 18.398 9.43 18.332 9.426 18.262 9.426 18.254 9.426 18.25 9.426 18.242 9.094 17.504 8.898 16.641 8.898 15.637 8.898 13.996 9.504 12.309 10.781 11.023 12.059 9.734 14.004 8.879 16.578 8.879 18.668 8.879 20.258 9.465 21.324 10.387 22.391 11.312 22.898 12.574 22.898 13.801 22.898 15.34 22.051 16.605 20.867 17.43 19.68 18.258 18.16 18.699 16.602 18.699 15.57 18.699 14.574 18.48 13.777 17.977 12.984 17.477 12.398 16.617 12.398 15.57 12.398 14.906 12.602 14.297 12.969 13.844 13.336 13.391 13.852 13.086 14.391 12.883 15.469 12.469 16.746 12.398 18 12.398 18.25 12.398 18.488 12.527 18.617 12.746 18.742 12.965 18.742 13.234 18.617 13.453 18.488 13.672 18.25 13.801 18 13.801 16.812 13.801 15.656 13.902 14.895 14.195 14.516 14.34 14.23 14.531 14.062 14.742 13.895 14.949 13.801 15.18 13.801 15.57 13.801 16.148 14.031 16.488 14.523 16.797 15.012 17.105 15.773 17.301 16.602 17.301 17.895 17.301 19.176 16.922 20.078 16.293 20.98 15.664 21.5 14.84 21.5 13.801 21.5 12.961 21.172 12.125 20.406 11.461 19.641 10.793 18.41 10.277 16.578 10.277 14.305 10.277 12.762 11.004 11.766 12.008 10.77 13.008 10.301 14.332 10.301 15.637 10.301 18.297 11.77 19.457 13.363 20.121 14.805 20.723 16.219 20.793 16.492 20.801 16.527 20.797 16.562 20.797 16.602 20.801 16.621 20.801 16.645 20.801 16.664 20.801 19.945 20.789 21.641 20.082 22.703 19.117 23.77 18.141 24.258 16.801 24.891 15.289 25.523 13.773 26.344 12.117 28.129 10.891 29.914 9.664 32.586 8.898 36.898 8.898 37.242 8.895 37.539 9.137 37.602 9.469L41.867 33.508C41.898 33.707 41.84 33.914 41.711 34.066 41.582 34.223 41.391 34.316 41.188 34.32 37.852 34.32 35.734 34.785 34.273 35.434 32.816 36.082 31.992 36.91 31.211 37.82 30.434 38.727 29.707 39.727 28.5 40.508 27.293 41.293 25.645 41.801 23.141 41.801ZM23.141 40.398C25.465 40.398 26.781 39.969 27.734 39.352 28.688 38.73 29.336 37.859 30.164 36.898 30.988 35.941 32.016 34.918 33.707 34.164 35.242 33.484 37.406 33.062 40.355 32.984L36.309 10.367C32.598 10.445 30.297 11.082 28.914 12.027 27.445 13.035 26.793 14.352 26.18 15.812 25.57 17.273 25.023 18.906 23.645 20.164 22.281 21.406 20.176 22.18 16.73 22.199 16.723 22.199 16.719 22.199 16.711 22.199 16.688 22.199 16.664 22.199 16.645 22.199 16.629 22.199 16.613 22.199 16.602 22.199 16.57 22.203 16.543 22.203 16.512 22.199 16.492 22.199 16.445 22.18 16.402 22.18 15.961 22.164 14.453 22.086 12.836 21.414 12.48 21.266 12.117 21.066 11.766 20.844 12.969 24.371 16.172 33.785 16.797 35.652 17.211 36.898 17.633 38.086 18.48 38.934 19.332 39.785 20.648 40.398 23.141 40.398ZM23.141 40.398"/>
</g>
</svg>
