<svg xmlns="http://www.w3.org/2000/svg" xmlns:xlink="http://www.w3.org/1999/xlink" version="1.1" width="50pt" height="50pt" viewBox="0 0 50 50">
<g>
<path fill="white" transform="matrix(1,0,0,-1,0,50)" d="M29.551 41.391 26.809 38.648 29.551 35.91 32.289 38.648ZM20.801 39.699C20.414 39.699 20.102 39.387 20.102 39V35.5C20.102 35.113 20.414 34.801 20.801 34.801H21.5C22.336 34.801 22.52 34.547 22.699 34.148 22.875 33.746 22.898 33.141 22.898 32.699 22.898 32.129 22.832 31.527 22.734 30.949 22.117 31.168 21.527 31.297 20.98 31.301 20.363 31.305 19.746 31.133 19.309 30.691 19.121 30.504 18.996 30.281 18.898 30.043L18.887 30.047 11.191 10.547 31.391 17.461 31.387 17.473C31.645 17.57 31.891 17.707 32.09 17.91 32.613 18.434 32.758 19.188 32.68 19.941 32.629 20.418 32.492 20.918 32.293 21.441 32.848 21.477 33.434 21.5 34.102 21.5 35.098 21.5 36.043 21.379 36.656 21.168 36.961 21.059 37.18 20.93 37.281 20.828 37.387 20.73 37.395 20.703 37.395 20.625V20.102C37.395 19.715 37.707 19.398 38.094 19.398H41.102C41.289 19.398 41.469 19.477 41.602 19.613 41.734 19.746 41.805 19.93 41.801 20.121 41.801 20.121 41.781 20.984 41.781 20.992 41.793 22.582 40.793 23.816 39.555 24.57 38.32 25.328 36.824 25.699 35.484 25.699 33.27 25.699 31.625 25.125 30.523 24.559 30.176 25.027 29.793 25.504 29.375 25.977 29.625 26.059 29.875 26.133 30.121 26.199 30.613 26.332 31.082 26.441 31.445 26.523 31.805 26.602 32.008 26.637 32.188 26.688 32.754 26.848 33.523 27.039 34.215 27.504 34.906 27.965 35.5 28.793 35.5 29.898 35.5 30.203 35.352 30.371 35.258 30.602H35.5C36.996 30.602 38.301 31.809 38.301 33.398V34.363C38.301 34.363 38.305 34.457 38.371 34.566 38.438 34.672 38.488 34.801 39 34.801H39.699C40.086 34.801 40.398 35.113 40.398 35.5V38.297C40.398 38.684 40.086 39 39.699 39H38.566C36.703 39 35.555 38.141 34.941 37.32 34.484 36.711 34.344 35.961 34.238 35.316 34.188 35.035 34.199 35.004 34.18 34.801H34.102C32.895 34.801 31.949 34.363 31.375 33.672 30.801 32.984 30.602 32.117 30.602 31.301V30.352C29.453 29.973 28.141 29.355 27.008 28.289 26.344 28.855 25.68 29.359 25.031 29.785 25.746 31.051 26.398 32.754 26.398 34.801 26.398 36.004 26 37.223 25.164 38.156 24.328 39.086 23.047 39.699 21.449 39.699ZM29.551 39.41 30.309 38.648 29.551 37.891 28.789 38.648ZM14.852 38.59 14.355 38.094 12.109 35.852 14.852 33.109 17.59 35.852ZM21.5 38.289C22.723 38.277 23.555 37.852 24.121 37.219 24.699 36.578 25 35.695 25 34.801 25 33.344 24.574 32.152 24.082 31.129 24.16 31.664 24.301 32.141 24.301 32.699 24.301 33.141 24.324 33.938 23.977 34.715 23.633 35.492 22.762 36.199 21.5 36.199ZM38.562 37.598H38.566 39V36.199C38.109 36.199 37.465 35.758 37.18 35.297 36.895 34.836 36.898 34.363 36.898 34.363V33.398C36.898 32.543 36.277 32 35.5 32H34.102C33.84 32 33.602 31.855 33.48 31.625 33.359 31.395 33.375 31.117 33.523 30.902 33.523 30.902 33.578 30.836 33.582 30.828 33.586 30.824 33.59 30.82 33.59 30.82 33.598 30.812 33.602 30.809 33.609 30.797 33.625 30.781 33.648 30.754 33.676 30.723 33.727 30.66 33.801 30.566 33.867 30.465 34.004 30.254 34.102 29.992 34.102 29.898 34.102 29.23 33.863 28.949 33.438 28.668 33.016 28.383 32.387 28.199 31.812 28.035 31.836 28.043 31.512 27.973 31.137 27.887 30.762 27.805 30.277 27.691 29.758 27.547 28.953 27.332 28.156 26.984 27.414 26.613 28.59 28.07 30.199 28.863 31.488 29.227 31.789 29.312 32 29.586 32 29.898V31.301C32 31.883 32.148 32.418 32.449 32.777 32.75 33.137 33.207 33.398 34.102 33.398H34.801C35.172 33.398 35.48 33.691 35.5 34.062 35.5 34.062 35.523 34.527 35.617 35.086 35.711 35.645 35.922 36.297 36.059 36.48 36.496 37.062 37.098 37.602 38.562 37.598ZM14.852 36.609 15.609 35.852 14.852 35.09 14.09 35.852ZM39.352 30.602 37.602 28.852 39.352 27.102 41.098 28.852ZM12.051 29.898 10.301 28.148 12.051 26.398 13.797 28.148ZM20.969 29.898C21.336 29.898 21.844 29.762 22.426 29.527 22.227 28.766 22.031 28.199 21.973 28.02 21.875 27.723 21.988 27.395 22.25 27.219 22.512 27.043 22.859 27.066 23.098 27.273 23.195 27.359 23.367 27.52 23.68 27.875 23.848 28.062 24.039 28.305 24.246 28.578 24.84 28.207 25.465 27.75 26.086 27.234 25.996 27.109 25.898 26.992 25.816 26.859L24.414 24.68C24.234 24.398 24.277 24.031 24.516 23.801 24.754 23.566 25.125 23.535 25.398 23.723L27.504 25.18C27.625 25.262 27.789 25.352 27.973 25.438 28.473 24.898 28.93 24.352 29.328 23.816 29.105 23.645 28.93 23.492 28.898 23.461L27.309 21.891C27.07 21.656 27.031 21.289 27.211 21.012 27.391 20.734 27.742 20.621 28.051 20.738 28.051 20.738 28.969 21.086 30.832 21.312 31.09 20.727 31.246 20.203 31.289 19.797 31.34 19.297 31.238 19.035 31.102 18.898 31.047 18.844 30.969 18.801 30.875 18.766L30.801 18.738C30.68 18.707 30.52 18.691 30.312 18.703 29.875 18.73 29.273 18.895 28.594 19.203 27.234 19.82 25.559 21.004 23.98 22.582 22.402 24.16 21.223 25.832 20.602 27.195 20.293 27.875 20.129 28.477 20.105 28.914 20.09 29.133 20.109 29.297 20.145 29.422 20.148 29.438 20.152 29.445 20.16 29.461 20.195 29.566 20.242 29.645 20.297 29.703 20.414 29.816 20.602 29.902 20.969 29.898ZM19.18 26.973C19.227 26.855 19.273 26.738 19.328 26.613 20.043 25.039 21.312 23.27 22.992 21.59 24.672 19.914 26.441 18.641 28.016 17.926 28.078 17.898 28.141 17.875 28.203 17.848L13.605 12.852ZM35.484 24.301C36.551 24.301 37.859 23.973 38.824 23.379 39.793 22.785 40.387 22.016 40.379 21.008 40.379 20.953 40.383 20.887 40.383 20.801H38.715C38.66 21.199 38.516 21.59 38.246 21.848 37.93 22.145 37.543 22.34 37.113 22.488 36.254 22.785 35.203 22.898 34.102 22.898 32.297 22.898 31.066 22.715 29.996 22.539 30.156 22.695 31.883 24.301 35.484 24.301ZM34.449 16.191 33.953 15.695 31.711 13.449 34.449 10.711 37.191 13.449ZM34.449 14.211 35.211 13.449 34.449 12.691 33.691 13.449ZM34.449 14.211"/>
</g>
</svg>
