<svg xmlns="http://www.w3.org/2000/svg" xmlns:xlink="http://www.w3.org/1999/xlink" version="1.1" width="50pt" height="50pt" viewBox="0 0 50 50">
<g>
<path fill="white" transform="matrix(1,0,0,-1,0,50)" d="M13.66 40.398C12.586 40.398 11.699 39.516 11.699 38.438V35.359C11.699 34.859 11.926 34.418 12.238 34.07L9.719 30.289C9.512 29.98 9.582 29.562 9.879 29.34 9.879 29.34 10.559 28.848 11.699 28.422V13.801C11.699 11.488 13.59 9.602 15.898 9.602H34.102C36.41 9.602 38.301 11.488 38.301 13.801V28.5C38.301 28.508 38.301 28.52 38.297 28.527 39.367 28.906 40.043 29.289 40.043 29.289 40.223 29.391 40.352 29.566 40.387 29.773 40.426 29.977 40.371 30.188 40.238 30.348L37.344 33.82C37.883 34.172 38.301 34.676 38.301 35.359V38.438C38.301 39.516 37.414 40.398 36.34 40.398ZM13.66 39H36.34C36.652 39 36.898 38.754 36.898 38.438V35.359C36.898 35.047 36.652 34.801 36.34 34.801H36.289C36.227 34.809 36.16 34.809 36.094 34.801H13.66C13.348 34.801 13.102 35.047 13.102 35.359V38.438C13.102 38.754 13.348 39 13.66 39ZM13.516 33.461C13.57 33.457 13.605 33.398 13.66 33.398H35.871L38.562 30.172C37.734 29.789 36.18 29.156 34.113 29.199 32.875 29.227 31.52 29.66 30.289 30.484 30.086 30.617 29.828 30.637 29.605 30.535 27.879 29.742 26.965 29.199 25 29.199 23.531 29.199 22.094 29.52 20.461 30.5 20.254 30.625 20 30.633 19.785 30.527 18 29.633 16.387 29.203 15.09 29.199 13.07 29.195 11.902 29.789 11.305 30.145ZM20.094 29.148C21.793 28.203 23.426 27.801 25 27.801 27.094 27.801 28.355 28.422 29.887 29.133 31.223 28.32 32.672 27.828 34.086 27.801 35.102 27.777 36.051 27.926 36.898 28.125V13.801C36.898 12.246 35.652 11 34.102 11H15.898C14.348 11 13.102 12.246 13.102 13.801V28.012C13.699 27.887 14.363 27.797 15.094 27.801 16.598 27.805 18.289 28.289 20.09 29.148ZM20.094 29.148"/>
</g>
</svg>
