<svg xmlns="http://www.w3.org/2000/svg" xmlns:xlink="http://www.w3.org/1999/xlink" version="1.1" width="50pt" height="50pt" viewBox="0 0 50 50">
<g>
<path transform="matrix(1,0,0,-1,0,50)" d="M21.469 39.711C21.441 39.707 21.41 39.707 21.379 39.699H21.375 21.371C21.293 39.684 21.215 39.656 21.148 39.617L13.215 36.73 8.051 16.816 14.281 15.035 15.898 20.703V10.301H34.102V20.703L35.719 15.035 41.949 16.816 36.785 36.73 28.621 39.699H21.609C21.566 39.707 21.52 39.711 21.469 39.711ZM22.473 38.301H27.547L25.078 30.484ZM21.062 38.098 24.336 28.277C24.344 28.258 24.352 28.238 24.359 28.215L24.109 27.418 20.195 34.125 20.91 35.551 19.574 37.555ZM28.949 38.094 30.43 37.555 29.09 35.551 29.797 34.145 25.68 27.738ZM18.219 37.062 19.289 35.449 18.605 34.074 23.664 25.406C23.625 25.078 23.602 24.746 23.602 24.414V11.699H17.301V30.699L13.32 16.766 9.746 17.785 14.387 35.668ZM31.781 37.062 35.613 35.668 40.25 17.785 36.68 16.766 32.699 30.699V11.699H25V24.094L31.402 34.055 30.711 35.449ZM26.398 22.199C26.016 22.199 25.699 21.887 25.699 21.5 25.699 21.113 26.016 20.801 26.398 20.801 26.785 20.801 27.102 21.113 27.102 21.5 27.102 21.887 26.785 22.199 26.398 22.199ZM26.398 18.699C26.016 18.699 25.699 18.387 25.699 18 25.699 17.613 26.016 17.301 26.398 17.301 26.785 17.301 27.102 17.613 27.102 18 27.102 18.387 26.785 18.699 26.398 18.699ZM26.398 15.199C26.016 15.199 25.699 14.887 25.699 14.5 25.699 14.113 26.016 13.801 26.398 13.801 26.785 13.801 27.102 14.113 27.102 14.5 27.102 14.887 26.785 15.199 26.398 15.199ZM26.398 15.199"/>
</g>
</svg>
