<svg xmlns="http://www.w3.org/2000/svg" xmlns:xlink="http://www.w3.org/1999/xlink" version="1.1" width="50pt" height="50pt" viewBox="0 0 50 50">
<g>
<path transform="matrix(1,0,0,-1,0,50)" d="M24.824 41.121C21.379 41.027 18.445 38.676 17.629 35.434H17.605C17.602 35.422 17.613 35.406 17.605 35.391 17.238 34.086 18.223 32.699 19.617 32.699 20.547 32.699 21.387 33.34 21.609 34.273 21.613 34.285 21.629 34.285 21.633 34.297 22.109 36.031 23.816 37.18 25.766 36.77 27.109 36.477 28.164 35.441 28.457 34.102H28.434C28.91 31.777 27.242 29.836 25 29.836H20.801C20.051 29.836 19.32 29.902 18.613 29.68 18.258 29.57 17.895 29.352 17.648 29.004 17.402 28.652 17.301 28.215 17.301 27.734V12.336C17.301 10.414 18.879 8.836 20.801 8.836H29.199C31.121 8.836 32.699 10.414 32.699 12.336V33.18C32.699 37.246 29.633 40.789 25.547 41.102H25.523C25.293 41.113 25.055 41.129 24.824 41.121ZM24.867 39.699C25.059 39.707 25.242 39.711 25.438 39.699 28.773 39.449 31.301 36.539 31.301 33.18V12.336C31.301 11.176 30.359 10.234 29.199 10.234H20.801C19.641 10.234 18.699 11.176 18.699 12.336V27.734C18.699 28.023 18.75 28.141 18.789 28.195 18.824 28.25 18.875 28.301 19.027 28.348 19.336 28.441 20.008 28.434 20.801 28.434H25C28.078 28.434 30.453 31.25 29.812 34.383 29.406 36.262 27.926 37.738 26.051 38.148 23.391 38.711 20.906 37.07 20.254 34.625V34.602C20.184 34.293 19.938 34.102 19.617 34.102 19.07 34.102 18.785 34.516 18.941 35.02L18.961 35.039V35.062C19.609 37.703 22.016 39.625 24.867 39.699ZM24.867 39.699"/>
</g>
</svg>
