<svg xmlns="http://www.w3.org/2000/svg" xmlns:xlink="http://www.w3.org/1999/xlink" version="1.1" width="50pt" height="50pt" viewBox="0 0 50 50">
<g>
<path fill="white" transform="matrix(1,0,0,-1,0,50)" d="M31.301 41.844C27.09 41.844 23.637 38.445 23.555 34.254 23.152 33.617 17.785 25.156 13.559 20.93L13.582 20.91C13.523 20.867 13.32 20.746 13.188 20.406 13.039 20.02 13.156 19.363 13.582 18.941L14.566 17.957 13.383 16.773C12.176 15.566 11.637 14.195 11.68 12.902 11.719 11.609 12.297 10.422 13.188 9.578 14.961 7.887 18.062 7.496 20.363 9.797L29.965 19.398C31.832 21.266 33.875 20.883 35.129 19.664 35.754 19.055 36.16 18.227 36.18 17.344 36.195 16.461 35.859 15.496 34.887 14.523L30.445 10.082C30.156 9.793 30.156 9.32 30.445 9.031 30.738 8.742 31.207 8.742 31.496 9.031L35.914 13.473C37.125 14.68 37.672 16.066 37.645 17.367 37.617 18.664 37.035 19.855 36.156 20.711 35.277 21.57 34.059 22.098 32.766 22.113 31.473 22.129 30.117 21.629 28.938 20.449L19.336 10.848C17.539 9.055 15.484 9.441 14.215 10.648 13.582 11.254 13.172 12.078 13.145 12.945 13.117 13.816 13.438 14.773 14.414 15.746L14.477 15.789 15.594 16.906 16.117 16.402C16.539 15.984 17.113 15.828 17.52 15.945 17.871 16.047 17.996 16.277 18.043 16.336L18.086 16.293C22.207 20.414 30.812 25.945 31.453 26.355 35.648 26.438 39.043 29.887 39.043 34.102 39.043 38.363 35.559 41.844 31.301 41.844ZM31.301 40.355C34.766 40.355 37.555 37.566 37.555 34.102 37.555 32.715 37.109 31.438 36.352 30.402L27.602 39.152C28.637 39.91 29.914 40.355 31.301 40.355ZM26.531 38.148 35.367 29.332C34.277 28.398 32.855 27.844 31.301 27.844 27.832 27.844 25.043 30.629 25.043 34.102 25.043 35.648 25.605 37.055 26.531 38.148ZM23.84 32.066C24.566 29.422 26.66 27.328 29.309 26.617 26.457 24.738 20.516 20.699 17.148 17.344 17.137 17.359 17.141 17.352 17.102 17.387L14.566 19.945C17.988 23.379 21.984 29.227 23.84 32.066ZM23.73 27.43C23.52 27.43 23.301 27.348 23.141 27.188L21.258 25.285C20.938 24.965 20.938 24.445 21.258 24.125L21.324 24.059C21.641 23.738 22.164 23.738 22.484 24.059L24.387 25.961C24.707 26.281 24.703 26.801 24.387 27.121L24.301 27.188C24.141 27.348 23.941 27.43 23.73 27.43ZM23.73 27.43"/>
</g>
</svg>
