<svg xmlns="http://www.w3.org/2000/svg" xmlns:xlink="http://www.w3.org/1999/xlink" version="1.1" width="50pt" height="50pt" viewBox="0 0 50 50">
<g>
<path fill="white" transform="matrix(1,0,0,-1,0,50)" d="M36.898 38.215V33.633C36.68 33.711 36.445 33.75 36.203 33.75 36.051 33.75 35.902 33.734 35.754 33.703 33.574 33.227 30.219 32.496 27.039 31.801 24.453 31.234 21.98 30.699 20.344 30.34 20.262 30.32 20.18 30.297 20.102 30.27V34.738C21.848 35.113 34.512 37.723 36.898 38.215M36.898 20.371V18.699C36.898 16.039 36.32 14.5 33.359 14.5 29.199 14.5 29.199 16.117 29.199 17.301 29.199 18.234 29.199 19.398 33.398 19.398 35.055 19.398 36.164 19.797 36.898 20.371M18.699 16.871V15.199C18.699 12.539 18.121 11 15.156 11 11 11 11 12.617 11 13.801 11 14.734 11 15.898 15.199 15.898 16.855 15.898 17.965 16.297 18.699 16.871M37.23 39.688C37.098 39.688 37.004 39.664 37.004 39.664 37.004 39.664 20.801 36.324 19.66 36.074 18.973 35.926 18.699 35.473 18.699 34.801V20.102C18.699 18.555 17.98 17.301 15.199 17.301 11.238 17.301 9.602 16.277 9.602 13.801 9.602 12.133 9.941 9.602 15.156 9.602 19.996 9.602 20.102 13.324 20.102 15.199V28.289C20.102 28.617 20.324 28.902 20.645 28.973 24.289 29.77 32.102 31.469 36.051 32.336 36.102 32.348 36.152 32.352 36.203 32.352 36.578 32.352 36.898 32.047 36.898 31.652V23.602C36.898 22.055 36.18 20.801 33.398 20.801 29.438 20.801 27.801 19.777 27.801 17.301 27.801 15.633 28.145 13.102 33.359 13.102 38.195 13.102 38.301 16.824 38.301 18.699V38.301C38.301 39.523 37.602 39.688 37.23 39.688ZM37.23 39.688"/>
</g>
</svg>
