<svg xmlns="http://www.w3.org/2000/svg" xmlns:xlink="http://www.w3.org/1999/xlink" version="1.1" width="50pt" height="50pt" viewBox="0 0 50 50">
<g>
<path fill="white" transform="matrix(1,0,0,-1,0,50)" d="M25.699 39.699C22.816 39.699 20.746 38.703 19.379 37.184 18.012 35.664 17.328 33.688 16.93 31.695 16.527 29.699 16.406 27.676 16.227 26.051 16.141 25.238 16.043 24.531 15.898 23.992 15.758 23.457 15.57 23.125 15.441 23.008 15.289 22.879 15.199 22.688 15.199 22.484 15.199 21.914 15.594 21.445 16.008 21.172 16.426 20.898 16.902 20.738 17.477 20.582 18.434 20.32 19.68 20.164 20.91 20.012 20.902 19.973 20.895 19.953 20.887 19.902 20.684 19.383 20.172 18.922 19.336 18.504 19.328 18.5 19.316 18.508 19.312 18.504 19.289 18.496 19.27 18.488 19.246 18.48 19.133 18.457 19.027 18.406 18.941 18.328 18.102 17.953 17.094 17.613 16.055 17.168 14.879 16.668 13.68 16.055 12.727 15.09 11.777 14.125 11.094 12.789 11 11.043 10.988 10.852 11.059 10.66 11.188 10.523 11.324 10.379 11.508 10.301 11.699 10.301H38.301C38.492 10.301 38.676 10.379 38.812 10.523 38.941 10.66 39.012 10.852 39 11.043 38.906 12.789 38.238 14.121 37.293 15.09 36.348 16.059 35.156 16.664 33.992 17.168 32.824 17.676 31.668 18.078 30.773 18.523 29.906 18.961 29.344 19.391 29.113 19.945 29.113 19.969 29.113 20.008 29.113 20.035 30.391 20.191 31.656 20.379 32.633 20.691 33.219 20.875 33.719 21.094 34.121 21.348 34.523 21.602 34.93 21.941 34.93 22.551 34.938 22.746 34.859 22.938 34.711 23.074 34.609 23.164 34.465 23.445 34.363 23.93 34.262 24.41 34.195 25.051 34.164 25.789 34.102 27.266 34.129 29.109 33.902 30.93 33.676 32.746 33.199 34.57 32.043 35.98 30.957 37.305 29.242 38.152 26.859 38.258L26.336 39.305C26.219 39.551 25.969 39.703 25.699 39.699ZM25.305 38.234 25.766 37.293C25.883 37.051 26.129 36.898 26.398 36.898 28.734 36.898 30.078 36.18 30.973 35.086 31.867 33.992 32.293 32.441 32.504 30.754 32.715 29.062 32.699 27.258 32.766 25.723 32.797 24.953 32.855 24.266 32.984 23.645 33.07 23.242 33.285 22.918 33.488 22.594 33.469 22.578 33.449 22.574 33.379 22.527 33.145 22.379 32.73 22.188 32.219 22.023 31.195 21.695 29.762 21.418 28.305 21.281 28.102 21.266 27.922 21.168 27.801 21.008 27.68 20.848 27.629 20.648 27.668 20.449 27.723 20.172 27.734 19.961 27.734 19.75 27.734 19.668 27.75 19.586 27.777 19.508 27.898 19.199 28.062 18.93 28.258 18.68L25 14.281 21.805 18.699C21.973 18.926 22.121 19.168 22.223 19.445 22.242 19.484 22.254 19.531 22.266 19.574 22.34 20.094 22.332 20.371 22.332 20.582 22.336 20.938 22.07 21.238 21.719 21.281 20.258 21.457 18.836 21.648 17.848 21.914 17.352 22.051 16.977 22.223 16.773 22.352 16.602 22.465 16.617 22.465 16.621 22.461 16.867 22.824 17.133 23.176 17.258 23.645 17.43 24.309 17.535 25.059 17.629 25.898 17.812 27.574 17.93 29.543 18.305 31.41 18.684 33.273 19.316 35.027 20.43 36.266 21.473 37.43 23 38.141 25.305 38.234ZM20.758 17.738 23.492 13.977C22.871 14.094 22.234 14.25 21.652 14.414 20.809 14.648 20.445 14.797 20.164 14.895 20.152 15.492 20.109 16.801 20.102 17.367 20.324 17.484 20.547 17.602 20.758 17.738ZM29.309 17.738C29.5 17.613 29.699 17.496 29.898 17.387 29.891 16.836 29.848 15.5 29.836 14.895 29.555 14.797 29.191 14.648 28.348 14.414 27.773 14.254 27.141 14.09 26.531 13.977ZM31.277 16.754C31.984 16.461 32.715 16.184 33.422 15.879 34.52 15.402 35.547 14.863 36.289 14.105 36.879 13.5 37.234 12.699 37.426 11.699H12.574C12.766 12.699 13.117 13.504 13.711 14.105 14.461 14.859 15.5 15.406 16.602 15.879 17.305 16.18 18.023 16.449 18.723 16.73 18.742 15.699 18.766 14.348 18.766 14.348 18.766 14.055 18.949 13.793 19.227 13.691 19.227 13.691 20.129 13.379 21.281 13.055 22.375 12.75 23.684 12.453 24.805 12.422 24.867 12.418 24.938 12.398 25 12.398 25.016 12.398 25.031 12.398 25.043 12.398 25.074 12.398 25.102 12.398 25.133 12.398 25.145 12.406 25.16 12.414 25.176 12.422 25.184 12.422 25.188 12.422 25.195 12.422 26.316 12.453 27.625 12.75 28.719 13.055 29.871 13.379 30.773 13.691 30.773 13.691 31.051 13.793 31.234 14.055 31.234 14.348 31.234 14.348 31.258 15.723 31.277 16.754ZM31.277 16.754"/>
</g>
</svg>
