<svg xmlns="http://www.w3.org/2000/svg" xmlns:xlink="http://www.w3.org/1999/xlink" version="1.1" width="50pt" height="50pt" viewBox="0 0 50 50">
<g>
<path fill="white" transform="matrix(1,0,0,-1,0,50)" d="M17.301 41.102C11.898 41.102 7.5 36.703 7.5 31.301 7.5 28.598 8.59 26.141 10.367 24.367 10.379 24.359 10.395 24.348 10.41 24.344 10.43 24.324 10.434 24.293 10.453 24.277 10.5 24.219 10.586 24.109 10.738 23.797 10.949 23.359 11.215 22.645 11.352 21.609 11.398 21.238 11.328 19.879 11.152 18.438 10.977 16.996 10.723 15.391 10.477 14.195 10.25 13.117 10.273 12.137 10.715 11.305 11.16 10.477 11.992 9.883 13.102 9.555 13.129 9.555 13.156 9.555 13.188 9.555L16.645 8.965C16.652 8.965 16.656 8.965 16.664 8.965 16.867 8.941 17.477 8.895 18.133 8.965 18.461 9 18.801 9.047 19.137 9.207 19.473 9.363 19.84 9.66 19.992 10.102 20.156 10.598 20.062 11.125 19.902 11.48 19.742 11.84 19.57 12.078 19.422 12.355 19.125 12.914 18.848 13.629 19.27 15.441 19.633 17 20.027 18.234 20.492 19.75 20.883 21.016 21.418 21.691 21.828 22.07 22.238 22.445 22.441 22.484 22.441 22.484 22.508 22.504 22.578 22.535 22.637 22.57L34.273 25.461C34.586 25.539 34.801 25.816 34.801 26.137V36.461C34.801 36.781 34.586 37.062 34.273 37.141L20.297 40.617 20.254 40.641V40.617C19.32 40.914 18.332 41.102 17.301 41.102ZM17.301 39.699C18.195 39.699 19.07 39.547 19.883 39.285 19.895 39.285 19.91 39.285 19.926 39.285L33.398 35.914V26.684L19.926 23.316C19.91 23.316 19.895 23.316 19.883 23.316 19.07 23.055 18.195 22.898 17.301 22.898 15.008 22.898 12.93 23.82 11.414 25.305 11.395 25.324 11.371 25.336 11.352 25.352 11.336 25.363 11.32 25.379 11.305 25.395 11.293 25.41 11.277 25.422 11.262 25.438 9.793 26.949 8.898 29.023 8.898 31.301 8.898 35.945 12.656 39.699 17.301 39.699ZM17.301 36.199C14.602 36.199 12.398 34 12.398 31.301 12.398 28.602 14.602 26.398 17.301 26.398 20 26.398 22.199 28.602 22.199 31.301 22.199 34 20 36.199 17.301 36.199ZM36.047 35.523C35.68 35.449 35.422 35.105 35.461 34.73 35.504 34.355 35.824 34.074 36.199 34.078 37.824 34.078 38.086 33.836 38.629 33.488 39.172 33.141 40.004 32.68 41.801 32.68 42.082 32.641 42.359 32.77 42.516 33.008 42.668 33.246 42.668 33.555 42.516 33.793 42.359 34.031 42.082 34.16 41.801 34.121 40.203 34.121 39.961 34.359 39.414 34.711 38.867 35.066 38.02 35.523 36.199 35.523 36.148 35.527 36.098 35.527 36.047 35.523ZM17.301 34.801C19.242 34.801 20.801 33.242 20.801 31.301 20.801 29.359 19.242 27.801 17.301 27.801 15.359 27.801 13.801 29.359 13.801 31.301 13.801 33.242 15.359 34.801 17.301 34.801ZM36.047 32.023C35.68 31.949 35.422 31.605 35.461 31.23 35.504 30.855 35.824 30.574 36.199 30.578 37.824 30.578 38.086 30.336 38.629 29.988 39.172 29.641 40.004 29.18 41.801 29.18 42.082 29.141 42.359 29.27 42.516 29.508 42.668 29.746 42.668 30.055 42.516 30.293 42.359 30.531 42.082 30.66 41.801 30.621 40.203 30.621 39.961 30.859 39.414 31.211 38.867 31.566 38.02 32.023 36.199 32.023 36.148 32.027 36.098 32.027 36.047 32.023ZM36.047 28.523C35.68 28.449 35.422 28.105 35.461 27.73 35.504 27.355 35.824 27.074 36.199 27.078 37.824 27.078 38.086 26.836 38.629 26.488 39.172 26.141 40.004 25.68 41.801 25.68 42.082 25.641 42.359 25.77 42.516 26.008 42.668 26.246 42.668 26.555 42.516 26.793 42.359 27.031 42.082 27.16 41.801 27.121 40.203 27.121 39.961 27.359 39.414 27.711 38.867 28.066 38.02 28.523 36.199 28.523 36.148 28.527 36.098 28.527 36.047 28.523ZM12.574 22.727C13.98 21.945 15.582 21.5 17.301 21.5 18.215 21.5 19.09 21.656 19.926 21.895 19.645 21.422 19.371 20.844 19.16 20.145 18.695 18.633 18.289 17.383 17.914 15.77 17.438 13.723 17.766 12.469 18.176 11.699 18.379 11.312 18.562 11.07 18.633 10.914 18.707 10.758 18.723 10.754 18.656 10.562 18.656 10.566 18.664 10.531 18.547 10.477 18.43 10.422 18.211 10.367 17.977 10.344 17.523 10.293 17.012 10.348 16.863 10.367H16.84L13.492 10.914C13.484 10.914 13.484 10.93 13.473 10.934 12.609 11.195 12.168 11.531 11.941 11.961 11.711 12.398 11.668 13.016 11.852 13.91 12.117 15.16 12.371 16.801 12.555 18.285 12.734 19.766 12.855 20.992 12.75 21.785 12.707 22.125 12.641 22.434 12.574 22.727ZM12.574 22.727"/>
</g>
</svg>
