<svg xmlns="http://www.w3.org/2000/svg" xmlns:xlink="http://www.w3.org/1999/xlink" version="1.1" width="50pt" height="50pt" viewBox="0 0 50 50">
<g>
<path fill="white" transform="matrix(1,0,0,-1,0,50)" d="M17.301 39.699C17.086 39.699 16.887 39.605 16.754 39.438L8.41 29.008C8.289 28.891 8.215 28.73 8.203 28.562 8.203 28.559 8.203 28.555 8.203 28.551V28.547C8.203 28.543 8.203 28.543 8.203 28.539 8.199 28.527 8.199 28.512 8.199 28.5 8.199 28.492 8.199 28.488 8.199 28.48V11C8.199 10.613 8.512 10.301 8.898 10.301H17.883C17.957 10.289 18.035 10.289 18.109 10.301H31.883C31.957 10.289 32.035 10.289 32.109 10.301H41.102C41.488 10.301 41.801 10.613 41.801 11V28.5C41.801 28.504 41.801 28.504 41.801 28.508 41.801 28.52 41.801 28.531 41.797 28.539 41.797 28.559 41.797 28.574 41.793 28.59 41.777 28.75 41.703 28.898 41.59 29.012L33.246 39.438C33.113 39.605 32.914 39.699 32.699 39.699ZM17.637 38.301H32.363L39.641 29.199H31.59L25.496 35.297C25.223 35.566 24.777 35.566 24.504 35.297L18.41 29.199H10.355ZM25 33.809 30.805 28.004C30.938 27.875 31.113 27.801 31.301 27.801H40.398V11.699H32.699V25.699C32.699 26.086 32.387 26.398 32 26.398H30.602C30.348 26.402 30.113 26.27 29.984 26.055 29.859 25.836 29.859 25.566 29.984 25.348 30.113 25.129 30.348 24.996 30.602 25H31.301V11.699H28.5V17.301C28.5 19.227 26.926 20.801 25 20.801 23.074 20.801 21.5 19.227 21.5 17.301V11.699H18.699V25H19.398C19.652 24.996 19.887 25.129 20.016 25.348 20.141 25.566 20.141 25.836 20.016 26.055 19.887 26.27 19.652 26.402 19.398 26.398H18C17.613 26.398 17.301 26.086 17.301 25.699V11.699H9.602V27.801H18.699C18.887 27.801 19.062 27.875 19.195 28.004ZM25 28.5C23.461 28.5 22.199 27.238 22.199 25.699 22.199 24.16 23.461 22.898 25 22.898 26.539 22.898 27.801 24.16 27.801 25.699 27.801 27.238 26.539 28.5 25 28.5ZM25 27.102C25.781 27.102 26.398 26.48 26.398 25.699 26.398 24.918 25.781 24.301 25 24.301 24.219 24.301 23.602 24.918 23.602 25.699 23.602 26.48 24.219 27.102 25 27.102ZM11.699 25.699C11.312 25.699 11 25.387 11 25V21.5C11 21.113 11.312 20.801 11.699 20.801H15.199C15.586 20.801 15.898 21.113 15.898 21.5V25C15.898 25.387 15.586 25.699 15.199 25.699ZM34.801 25.699C34.414 25.699 34.102 25.387 34.102 25V21.5C34.102 21.113 34.414 20.801 34.801 20.801H38.301C38.688 20.801 39 21.113 39 21.5V25C39 25.387 38.688 25.699 38.301 25.699ZM12.398 24.301H14.5V22.199H12.398ZM35.5 24.301H37.602V22.199H35.5ZM25 19.398C26.168 19.398 27.102 18.469 27.102 17.301V11.699H22.898V17.301C22.898 18.469 23.832 19.398 25 19.398ZM11.699 18.699C11.312 18.699 11 18.387 11 18V14.5C11 14.113 11.312 13.801 11.699 13.801H15.199C15.586 13.801 15.898 14.113 15.898 14.5V18C15.898 18.387 15.586 18.699 15.199 18.699ZM34.801 18.699C34.414 18.699 34.102 18.387 34.102 18V14.5C34.102 14.113 34.414 13.801 34.801 13.801H38.301C38.688 13.801 39 14.113 39 14.5V18C39 18.387 38.688 18.699 38.301 18.699ZM12.398 17.301H14.5V15.199H12.398ZM35.5 17.301H37.602V15.199H35.5ZM35.5 17.301"/>
</g>
</svg>
