<svg xmlns="http://www.w3.org/2000/svg" xmlns:xlink="http://www.w3.org/1999/xlink" version="1.1" width="50pt" height="50pt" viewBox="0 0 50 50">
<g>
<path fill="white" transform="matrix(1,0,0,-1,0,50)" d="M36.133 42.523C36.105 42.516 36.074 42.508 36.047 42.5 35.785 42.453 35.574 42.262 35.5 42.008 35.426 41.75 35.504 41.477 35.695 41.297L36.156 40.836 35.762 40.445 35.305 40.902C35.156 41.059 34.949 41.137 34.734 41.121 34.703 41.117 34.676 41.109 34.648 41.102 34.383 41.055 34.172 40.863 34.102 40.609 34.027 40.352 34.102 40.078 34.297 39.898L34.758 39.438 34.188 38.848C33.789 38.449 33.672 37.934 33.684 37.426L28.695 32.438H28.676C27.461 33.398 25.773 34.383 23.863 34.383 22.883 34.383 21.844 34.113 20.867 33.445 19.75 32.68 19.273 31.648 18.961 30.797 18.652 29.945 18.453 29.305 18.023 28.895 17.645 28.531 16.473 28.359 14.895 28.02 13.316 27.68 11.367 27.031 9.555 25.219 7.707 23.375 7.156 21.051 7.695 18.742 8.234 16.445 9.773 14.141 11.984 12.008 11.992 12 12 11.992 12.008 11.984 14.668 9.223 17.602 7.5 20.449 7.5 22.172 7.5 23.828 8.168 25.219 9.555 27.031 11.367 27.68 13.312 28.02 14.895 28.359 16.473 28.531 17.645 28.895 18.023 29.301 18.445 29.961 18.633 30.82 18.941 31.676 19.246 32.699 19.727 33.465 20.844 34.547 22.426 34.59 24.141 34.145 25.59 33.773 26.797 33.086 27.84 32.414 28.676L37.426 33.684C37.934 33.672 38.449 33.789 38.848 34.188L39.438 34.758 39.898 34.297C40.176 34.02 40.625 34.02 40.902 34.297 41.184 34.574 41.184 35.023 40.902 35.305L40.445 35.762 40.836 36.156 41.297 35.695C41.574 35.418 42.023 35.418 42.305 35.695 42.582 35.977 42.582 36.426 42.305 36.703L41.844 37.164 41.91 37.25C42.688 38.023 42.688 39.297 41.91 40.07L40.094 41.91C40.09 41.914 40.078 41.902 40.07 41.91 39.688 42.285 39.18 42.5 38.672 42.5 38.156 42.5 37.637 42.297 37.25 41.91L37.164 41.844 36.703 42.305C36.559 42.461 36.348 42.539 36.133 42.523ZM38.672 41.102C38.82 41.102 38.969 41.043 39.086 40.926L40.926 39.086C41.164 38.852 41.164 38.492 40.926 38.258L37.863 35.195C37.711 35.043 37.508 34.984 37.293 35.039L36.898 35.148 36.637 34.867 31.148 29.375C31.109 29.352 31.07 29.32 31.039 29.289 30.98 29.242 30.93 29.191 30.883 29.133 30.859 29.098 30.836 29.062 30.82 29.023L26.094 24.32C25.742 25.105 25.105 25.742 24.32 26.094L29.07 30.84C29.078 30.848 29.082 30.855 29.09 30.863L29.133 30.883C29.215 30.938 29.281 31 29.332 31.082 29.348 31.102 29.359 31.125 29.375 31.148L34.867 36.617 35.148 36.898 35.039 37.293C34.984 37.512 35.043 37.711 35.195 37.863L38.258 40.926C38.375 41.047 38.523 41.102 38.672 41.102ZM38.586 40.27C38.484 40.27 38.398 40.234 38.32 40.16L35.719 37.555C35.566 37.402 35.566 37.164 35.719 37.008 35.797 36.934 35.902 36.898 36.004 36.898 36.105 36.898 36.188 36.934 36.266 37.008L38.867 39.613C39.023 39.766 39.023 40.008 38.867 40.16 38.793 40.234 38.684 40.27 38.586 40.27ZM39.875 38.977C39.777 38.977 39.688 38.945 39.613 38.867L37.008 36.266C36.855 36.113 36.855 35.871 37.008 35.719 37.086 35.641 37.191 35.609 37.293 35.609 37.395 35.609 37.5 35.641 37.578 35.719L40.16 38.32C40.312 38.477 40.312 38.715 40.16 38.867 40.082 38.945 39.973 38.977 39.875 38.977ZM23.863 32.984C25.223 32.984 26.602 32.223 27.668 31.41L22.637 26.379C20.84 26.238 19.398 24.734 19.398 22.898 19.398 20.977 20.977 19.398 22.898 19.398 24.734 19.398 26.238 20.84 26.379 22.637L31.41 27.668C31.965 26.945 32.508 26.086 32.789 25.176 33.145 24.02 33.141 22.852 32.305 21.633 31.758 20.828 31.113 20.531 30.336 20.254 29.562 19.977 28.633 19.781 27.887 19.008V18.984C26.953 18.012 26.977 16.66 26.664 15.199 26.348 13.738 25.816 12.145 24.234 10.562 23.07 9.398 21.82 8.898 20.449 8.898 18.18 8.898 15.523 10.379 13.012 12.992H12.992C10.895 15.004 9.523 17.129 9.074 19.051 8.625 20.973 9.016 22.688 10.562 24.234 12.145 25.816 13.738 26.348 15.199 26.664 16.66 26.977 18.012 26.953 18.984 27.887 19.758 28.629 19.992 29.543 20.273 30.316 20.559 31.086 20.848 31.73 21.652 32.285 22.406 32.801 23.141 32.984 23.863 32.984ZM22.898 25C24.066 25 25 24.066 25 22.898 25 21.734 24.066 20.801 22.898 20.801 21.734 20.801 20.801 21.734 20.801 22.898 20.801 24.066 21.734 25 22.898 25ZM15.309 20.691C15.207 20.691 15.102 20.656 15.023 20.582L14.195 19.75C14.039 19.598 14.039 19.336 14.195 19.18L19.18 14.195C19.336 14.039 19.598 14.039 19.75 14.195L20.582 15.023C20.734 15.18 20.734 15.438 20.582 15.594L15.594 20.582C15.516 20.656 15.41 20.691 15.309 20.691ZM15.309 20.691"/>
</g>
</svg>
