<svg xmlns="http://www.w3.org/2000/svg" xmlns:xlink="http://www.w3.org/1999/xlink" version="1.1" width="50pt" height="50pt" viewBox="0 0 50 50">
<g>
<path fill="white" transform="matrix(1,0,0,-1,0,50)" d="M22.223 42.5C19.828 42.5 18 40.691 18 38.301 18 36.98 18.539 35.859 19.27 34.953 20 34.047 20.918 33.301 21.785 32.59 22.023 32.398 22.25 32.195 22.484 32H14.695C12.672 32 10.969 30.691 10.344 28.871 10.32 28.809 10.305 28.742 10.301 28.676 10.301 28.66 10.301 28.645 10.301 28.633 10.301 28.617 10.301 28.602 10.301 28.586 10.301 28.574 10.301 28.559 10.301 28.543 10.301 28.535 10.301 28.531 10.301 28.523 10.301 28.516 10.301 28.508 10.301 28.5V20.492C9.012 20.008 7.992 18.98 7.543 17.672 7.52 17.609 7.504 17.543 7.5 17.477 7.5 17.461 7.5 17.445 7.5 17.43 7.5 17.418 7.5 17.402 7.5 17.387 7.5 17.375 7.5 17.359 7.5 17.344 7.5 17.336 7.5 17.328 7.5 17.32 7.5 17.312 7.5 17.309 7.5 17.301V10.781C7.5 9.52 8.121 8.547 9.008 8.07 9.898 7.59 10.953 7.5 12.07 7.5H37.93C39.047 7.5 40.102 7.59 40.992 8.07 41.879 8.547 42.5 9.52 42.5 10.781V17.301C42.5 17.32 42.5 17.344 42.5 17.367 42.496 17.41 42.488 17.453 42.477 17.496 42.477 17.504 42.477 17.512 42.477 17.52 42.477 17.57 42.469 17.621 42.457 17.672 42.008 18.98 40.988 20.012 39.699 20.492V28.5C39.707 28.543 39.707 28.586 39.699 28.633 39.695 28.66 39.688 28.691 39.68 28.719 39.676 28.77 39.672 28.824 39.656 28.871 39.031 30.691 37.328 32 35.305 32H27.516C27.746 32.195 27.98 32.398 28.215 32.59 29.078 33.301 30 34.047 30.73 34.953 31.461 35.859 32 36.98 32 38.301 32 40.691 30.172 42.5 27.777 42.5 26.547 42.5 25.66 41.848 25 41.254 24.34 41.848 23.453 42.5 22.223 42.5ZM22.223 41.102C23.078 41.102 24 40.398 24.496 39.875 24.629 39.738 24.812 39.66 25 39.66 25.188 39.66 25.371 39.738 25.504 39.875 26.004 40.398 26.918 41.102 27.777 41.102 29.523 41.102 30.602 40.035 30.602 38.301 30.602 37.352 30.238 36.578 29.637 35.828 29.035 35.078 28.188 34.398 27.32 33.684 26.691 33.172 26.035 32.609 25.438 32H24.562C23.965 32.613 23.309 33.168 22.68 33.684 21.812 34.398 20.965 35.082 20.363 35.828 19.762 36.574 19.398 37.352 19.398 38.301 19.398 40.035 20.477 41.102 22.223 41.102ZM14.695 30.602H24.082C24.215 30.559 24.363 30.559 24.496 30.602H25.48C25.617 30.559 25.762 30.559 25.898 30.602H35.305C36.617 30.602 37.664 29.777 38.168 28.652 38.121 28.539 38.113 28.406 37.688 28.062 37.121 27.609 36.074 27.102 34.102 27.102 32.324 27.102 31.469 27.582 31.039 27.977 30.605 28.367 30.578 28.633 30.578 28.633 30.504 28.941 30.227 29.164 29.906 29.172 29.59 29.172 29.305 28.961 29.223 28.652 29.223 28.652 29.23 28.648 29.156 28.523 29.082 28.395 28.941 28.203 28.676 27.996 28.145 27.586 27.086 27.102 25 27.102 22.914 27.102 21.855 27.586 21.324 27.996 21.059 28.203 20.918 28.395 20.844 28.523 20.77 28.648 20.777 28.652 20.777 28.652 20.695 28.961 20.41 29.172 20.094 29.172 19.773 29.164 19.496 28.941 19.422 28.633 19.422 28.633 19.375 28.371 18.941 27.977 18.508 27.578 17.664 27.102 15.898 27.102 13.992 27.102 12.945 27.602 12.355 28.062 11.922 28.402 11.891 28.531 11.832 28.652 12.336 29.777 13.383 30.602 14.695 30.602ZM20.145 27.273C20.266 27.148 20.309 27.031 20.473 26.902 21.293 26.266 22.691 25.699 25 25.699 27.309 25.699 28.707 26.266 29.527 26.902 29.691 27.031 29.734 27.148 29.855 27.273 29.949 27.156 29.973 27.039 30.098 26.926 30.812 26.27 32.066 25.699 34.102 25.699 36.117 25.699 37.445 26.207 38.301 26.793V20.777C38.234 20.781 38.172 20.801 38.102 20.801H11.898C11.828 20.801 11.766 20.781 11.699 20.777V26.816C12.562 26.219 13.906 25.699 15.898 25.699 17.922 25.699 19.164 26.273 19.883 26.926 20.012 27.043 20.047 27.156 20.145 27.273ZM11.898 19.398H38.102C39.414 19.398 40.461 18.578 40.969 17.453 40.918 17.34 40.914 17.203 40.488 16.863 39.922 16.41 38.875 15.898 36.898 15.898 35.121 15.898 33.84 16.391 33.008 16.863 32.172 17.336 31.824 17.758 31.824 17.758 31.695 17.914 31.504 18.004 31.305 18.008 31.102 18.012 30.91 17.93 30.773 17.781 30.773 17.781 30.418 17.34 29.484 16.863 28.551 16.383 27.086 15.898 25 15.898 22.914 15.898 21.449 16.383 20.516 16.863 19.582 17.34 19.227 17.781 19.227 17.781 19.09 17.93 18.898 18.012 18.695 18.008 18.496 18.004 18.305 17.914 18.176 17.758 18.176 17.758 16.625 15.898 13.102 15.898 11.191 15.898 10.145 16.402 9.555 16.863 9.121 17.203 9.09 17.328 9.031 17.453 9.539 18.578 10.586 19.398 11.898 19.398ZM18.699 16.445C18.945 16.223 19.109 16.031 19.883 15.637 20.996 15.066 22.691 14.5 25 14.5 27.309 14.5 29.004 15.066 30.117 15.637 30.879 16.027 31.027 16.219 31.277 16.445 31.512 16.219 31.645 16.027 32.328 15.637 33.344 15.062 34.867 14.5 36.898 14.5 38.914 14.5 40.242 15.008 41.102 15.594V10.781C41.102 9.902 40.848 9.594 40.336 9.316 39.82 9.035 38.949 8.898 37.93 8.898H12.07C11.051 8.898 10.18 9.035 9.664 9.316 9.152 9.594 8.898 9.902 8.898 10.781V15.617C9.762 15.02 11.105 14.5 13.102 14.5 16.461 14.5 18.117 15.898 18.699 16.445ZM18.699 16.445"/>
</g>
</svg>
