<svg xmlns="http://www.w3.org/2000/svg" xmlns:xlink="http://www.w3.org/1999/xlink" version="1.1" width="50pt" height="50pt" viewBox="0 0 50 50">
<g>
<path fill="#fff" transform="matrix(1,0,0,-1,0,50)" d="M27.801 41.93C22.762 41.93 17.594 40.395 13.777 35.523 9.961 30.648 7.5 22.57 7.5 9.602 7.496 9.395 7.586 9.199 7.742 9.062 7.898 8.926 8.105 8.867 8.309 8.898 8.309 8.898 12.371 9.602 20.102 9.602 20.113 9.602 20.129 9.602 20.145 9.602 21.504 8.336 23.105 7.5 25 7.5 26.898 7.5 28.629 8.32 30.117 9.602 30.125 9.602 30.133 9.602 30.141 9.602 30.176 9.598 30.215 9.598 30.25 9.602 37.836 9.602 41.668 8.898 41.668 8.898 41.875 8.863 42.09 8.918 42.25 9.055 42.414 9.188 42.504 9.391 42.5 9.602 42.5 13.07 42.195 15.516 41.887 17.102 41.664 18.25 41.477 18.824 41.363 19.137 41.637 19.637 41.801 20.195 41.801 20.801V22.898C41.801 24.031 41.238 25.035 40.398 25.68 40.363 29.551 39.203 33.016 37.164 35.543 35.195 37.977 32.363 39.477 29.047 39.633L28.477 41.449C28.383 41.742 28.105 41.938 27.801 41.93ZM27.297 40.488 27.82 38.781C27.918 38.488 28.195 38.293 28.5 38.301 31.656 38.301 34.227 36.945 36.07 34.668 37.766 32.57 38.82 29.656 38.977 26.336 38.758 26.379 38.531 26.398 38.301 26.398H36.898C36.879 26.398 36.855 26.398 36.836 26.398 36.473 26.367 36.195 26.062 36.199 25.699V24.43C35.832 24.609 35.473 24.688 35.215 24.715 34.375 25.766 30.879 30.18 29.199 34.449 29.062 34.73 28.852 34.938 28.5 34.867 28.223 34.867 27.938 34.664 27.867 34.383 27.164 31.863 21.352 24.504 15.332 24.367 14.98 24.438 14.156 24.578 13.383 24.016 12.684 23.453 12.398 22.68 12.398 21.633 12.398 20.02 13.441 18.699 14.98 18.352 15.914 15.914 17.164 13.117 18.852 10.977 12.973 10.922 9.875 10.523 8.945 10.387 9.051 22.664 11.418 30.242 14.871 34.648 18.277 38.996 22.719 40.391 27.297 40.488ZM28.5 32.414C30.602 27.938 34.094 23.812 34.23 23.602 34.371 23.461 34.59 23.316 34.801 23.316 34.801 23.316 35.797 23.301 36.199 22.461V20.801C36.199 19.891 34.449 19.684 34.449 19.684 34.172 19.684 33.887 19.395 33.816 19.117 33.465 17.504 32.902 15.973 32.133 14.5H33.684C34.246 15.762 34.738 17.09 35.02 18.352 35.445 18.441 35.836 18.598 36.199 18.789V18C36.199 17.613 36.516 17.301 36.898 17.301H37.602C37.602 15.371 36.027 13.801 34.102 13.801H28.367C28.078 14.609 27.305 15.199 26.398 15.199H25C23.848 15.199 22.898 14.25 22.898 13.102 22.898 11.949 23.848 11 25 11H26.398C27.305 11 28.078 11.59 28.367 12.398H34.102C36.789 12.398 39 14.609 39 17.301V17.367C39.469 17.465 39.906 17.648 40.289 17.914 40.363 17.621 40.426 17.277 40.508 16.84 40.773 15.488 41.031 13.309 41.078 10.41 40.164 10.547 37.219 10.926 31.496 10.977 31.695 11.215 31.879 11.449 32.066 11.699H30.25C28.777 10.02 26.961 8.898 25 8.898 21.641 8.898 18.781 12.27 16.117 19.27 16.047 19.547 15.762 19.684 15.551 19.684 14.57 19.754 13.801 20.582 13.801 21.633 13.801 22.051 13.871 22.625 14.148 22.836 14.43 23.047 14.98 22.965 14.98 22.965H15.199C21.012 22.965 26.539 28.703 28.5 32.414ZM37.602 25H38.301C39.461 25 40.398 24.059 40.398 22.898V20.801C40.398 20.383 40.281 19.992 40.07 19.664 40.027 19.617 39.992 19.562 39.961 19.508 39.578 19.016 38.973 18.699 38.301 18.699H37.602V22.352C37.648 22.492 37.656 22.66 37.602 22.836ZM25 13.801H26.398C26.789 13.801 27.102 13.488 27.102 13.102 27.102 12.711 26.789 12.398 26.398 12.398H25C24.613 12.398 24.301 12.711 24.301 13.102 24.301 13.488 24.613 13.801 25 13.801ZM25 13.801"/>
</g>
</svg>
