<svg xmlns="http://www.w3.org/2000/svg" xmlns:xlink="http://www.w3.org/1999/xlink" version="1.1" width="50pt" height="50pt" viewBox="0 0 50 50">
<g>
<path fill="white" transform="matrix(1,0,0,-1,0,50)" d="M20.035 42.523C20.004 42.516 19.973 42.508 19.945 42.5 19.621 42.426 19.391 42.133 19.398 41.801V37.93C18.141 37.438 17.453 36.637 17.453 36.637L17.301 36.441V36.199C17.301 34.535 18.312 33.156 19.246 32.176 19.828 31.566 20.047 31.457 20.406 31.191 19.582 30.574 17.504 28.953 15.023 26.137 11.992 22.695 8.898 17.914 8.898 12.531V12.312L9.031 12.137C9.031 12.137 9.18 11.926 9.445 11.699 9.711 11.477 10.113 11.203 10.695 10.934 11.816 10.41 13.648 9.938 16.383 9.906 16.539 9.773 17.078 9.301 18.371 8.727 19.836 8.078 22.031 7.434 25 7.434 27.969 7.434 30.164 8.078 31.629 8.727 32.922 9.301 33.461 9.773 33.617 9.906 36.352 9.938 38.184 10.41 39.305 10.934 39.887 11.203 40.289 11.477 40.555 11.699 40.82 11.926 40.969 12.137 40.969 12.137L41.102 12.312V12.531C41.102 17.914 38.008 22.688 34.977 26.117 32.496 28.914 30.418 30.512 29.594 31.125 29.953 31.395 30.172 31.5 30.754 32.109 31.688 33.09 32.699 34.469 32.699 36.133V36.352L32.57 36.551C32.57 36.551 31.887 37.367 30.602 37.863V41.801C30.605 42.016 30.508 42.223 30.344 42.359 30.18 42.496 29.957 42.547 29.746 42.5 29.422 42.426 29.191 42.133 29.199 41.801V38.211C29.02 38.23 28.824 38.234 28.633 38.234 26.645 38.234 25.559 37.316 25 36.77 24.445 37.328 23.344 38.301 21.367 38.301 21.172 38.301 20.984 38.273 20.801 38.258V41.801C20.809 42.004 20.727 42.195 20.582 42.332 20.434 42.473 20.234 42.539 20.035 42.523ZM21.367 36.898C23.246 36.898 24.453 35.414 24.453 35.414L25 34.734 25.547 35.414C25.547 35.414 26.66 36.836 28.633 36.836 30.34 36.836 31.02 36.141 31.234 35.895 31.137 34.898 30.5 33.863 29.746 33.07 28.934 32.215 28.105 31.672 28.105 31.672L27.254 31.102 28.105 30.512C28.105 30.512 31.008 28.469 33.926 25.176 36.789 21.941 39.551 17.531 39.656 12.793 39.641 12.781 39.652 12.789 39.633 12.773 39.461 12.625 39.164 12.422 38.695 12.203 37.836 11.801 36.387 11.379 34.078 11.305 33.863 16.48 31.211 21.148 31.211 21.148 31.066 21.422 30.75 21.566 30.445 21.5 30.223 21.453 30.035 21.305 29.945 21.094 29.852 20.883 29.871 20.645 29.988 20.449 29.988 20.449 32.605 15.75 32.699 10.914 32.477 10.738 32.027 10.422 31.059 9.992 29.758 9.418 27.77 8.836 25 8.836 22.23 8.836 20.242 9.418 18.941 9.992 17.973 10.422 17.523 10.738 17.301 10.914 17.395 15.75 20.012 20.449 20.012 20.449 20.156 20.688 20.148 20.992 19.988 21.223 19.824 21.449 19.543 21.559 19.27 21.5 19.062 21.461 18.891 21.332 18.789 21.148 18.789 21.148 16.137 16.48 15.922 11.305 13.613 11.379 12.164 11.801 11.305 12.203 10.836 12.422 10.539 12.625 10.367 12.773 10.348 12.789 10.359 12.781 10.344 12.793 10.449 17.531 13.211 21.969 16.074 25.219 18.992 28.531 21.895 30.578 21.895 30.578L22.746 31.168 21.895 31.738C21.895 31.738 21.066 32.281 20.254 33.137 19.5 33.93 18.863 34.965 18.766 35.961 18.949 36.156 19.418 36.59 20.32 36.789 20.34 36.797 20.363 36.805 20.383 36.812 20.672 36.871 20.992 36.898 21.367 36.898ZM21.367 36.898"/>
</g>
</svg>
