<svg xmlns="http://www.w3.org/2000/svg" xmlns:xlink="http://www.w3.org/1999/xlink" version="1.1" width="50pt" height="50pt" viewBox="0 0 50 50">
<g>
<path transform="matrix(1,0,0,-1,0,50)" d="M29.113 43.398C26.496 43.398 24.234 42.602 22.648 41.027 21.062 39.449 20.199 37.141 20.199 34.305V30.602H15.398C14.957 30.602 14.602 30.242 14.602 29.801V23.398C14.602 22.957 14.957 22.602 15.398 22.602H20.199V7.398C20.199 6.957 20.559 6.602 21 6.602H27.398C27.844 6.602 28.199 6.957 28.199 7.398V22.602H33.801C34.203 22.602 34.543 22.898 34.594 23.301L35.395 29.699C35.422 29.93 35.352 30.156 35.199 30.328 35.047 30.5 34.828 30.602 34.602 30.602H28.199V33.801C28.199 34.691 28.906 35.398 29.801 35.398H34.602C35.043 35.398 35.398 35.758 35.398 36.199V42.324C35.398 42.723 35.102 43.062 34.703 43.117 33.996 43.211 31.445 43.398 29.113 43.398ZM29.113 41.801C31.062 41.801 32.949 41.645 33.801 41.562V37H29.801C28.043 37 26.602 35.559 26.602 33.801V29.801C26.602 29.359 26.957 29 27.398 29H33.695L33.094 24.199H27.398C26.957 24.199 26.602 23.844 26.602 23.398V8.199H21.801V23.398C21.801 23.844 21.441 24.199 21 24.199H16.199V29H21C21.441 29 21.801 29.359 21.801 29.801V34.305C21.801 36.82 22.535 38.66 23.777 39.891 25.02 41.125 26.816 41.801 29.113 41.801ZM29.113 41.801"/>
</g>
</svg>
