<svg xmlns="http://www.w3.org/2000/svg" xmlns:xlink="http://www.w3.org/1999/xlink" version="1.1" width="50pt" height="50pt" viewBox="0 0 50 50">
<g>
<path fill="#fff" transform="matrix(1,0,0,-1,0,50)" d="M23.773 42.5C22.898 42.469 22.062 42.094 21.414 41.691 20.68 41.234 20.414 40.926 20.164 40.684 20.164 40.68 20.148 40.688 20.145 40.684H20.121C19.629 40.91 18.777 41.273 17.805 41.363 16.828 41.453 15.672 41.242 14.828 40.312H14.805C14.051 39.469 13.871 38.402 13.93 37.469 13.961 36.98 14.07 36.527 14.195 36.113 13.609 36.117 13.23 36.07 13.23 36.07 13.027 36.051 12.844 35.941 12.727 35.77 12.609 35.605 12.566 35.395 12.617 35.195L16.117 20.82 7.695 12.398C7.539 12.23 7.473 11.992 7.523 11.766 7.523 11.766 7.836 10.301 9.117 9.098 10.363 7.93 11.723 7.523 11.723 7.523 11.961 7.457 12.223 7.523 12.398 7.695L20.406 15.703C20.43 15.551 20.438 15.383 20.43 15.18 20.395 14.602 20.215 13.848 20.055 13.035 19.898 12.223 19.754 11.344 19.883 10.41 20.008 9.477 20.441 8.516 21.305 7.695 21.473 7.477 21.754 7.375 22.023 7.441 22.293 7.504 22.5 7.723 22.555 7.996 22.605 8.266 22.492 8.543 22.266 8.703 21.625 9.316 21.375 9.938 21.281 10.605 21.188 11.277 21.285 12.008 21.434 12.773 21.551 13.379 21.703 13.988 21.785 14.609 23.008 13.074 23.637 11.652 24.387 10.43 24.902 9.594 25.496 8.844 26.379 8.309 27.262 7.777 28.383 7.5 29.898 7.5 30.168 7.469 30.43 7.594 30.574 7.824 30.719 8.055 30.719 8.344 30.574 8.574 30.43 8.805 30.168 8.93 29.898 8.898 28.551 8.898 27.711 9.141 27.102 9.512 26.488 9.883 26.055 10.422 25.59 11.176 24.895 12.309 24.172 13.902 22.746 15.637L35.195 12.617C35.375 12.574 35.57 12.605 35.73 12.703 35.891 12.801 36.004 12.961 36.047 13.145 36.047 13.145 36.066 13.219 36.09 13.363 37.117 13.891 37.652 14.984 37.992 15.898 38.285 16.676 38.336 17.066 38.387 17.367 38.695 17.426 39.133 17.48 39.941 17.848 40.984 18.32 42.23 19.18 42.5 20.668V20.691C42.734 22.035 41.949 23.125 41.145 23.863 40.457 24.492 39.812 24.805 39.371 25.023 39.414 25.477 39.453 26.367 39.195 27.43 39.836 27.773 40.418 28.277 40.75 29.047H40.773C40.773 29.051 40.77 29.062 40.773 29.07 41.312 30.309 40.809 31.566 40.203 32.461 39.672 33.234 39.121 33.703 38.738 34.012 38.852 34.332 39.031 34.719 39.133 35.586 39.266 36.734 39.141 38.246 37.973 39.176L37.992 39.195C37.98 39.207 37.965 39.207 37.949 39.219 36.793 40.156 35.285 39.918 34.188 39.547 33.383 39.273 33.07 39.055 32.766 38.867 32.762 38.871 32.75 38.887 32.742 38.891 32.301 39.223 31.578 39.742 30.664 40.051 30.203 40.207 29.672 40.301 29.133 40.27 28.605 40.238 28.066 40.07 27.559 39.723 27.555 39.715 27.543 39.727 27.539 39.723V39.699C27.328 39.562 27.152 39.406 26.992 39.242 26.824 40.363 26.398 41.625 25.176 42.215 24.836 42.379 24.484 42.473 24.148 42.5 24.02 42.512 23.902 42.504 23.773 42.5ZM23.711 41.078C24.012 41.105 24.309 41.07 24.562 40.945 25.223 40.625 25.551 39.695 25.656 38.695 25.762 37.691 25.633 36.789 25.633 36.789L25.523 35.98H26.117C26.254 35.797 26.473 35.688 26.707 35.695 27.047 35.492 27.445 35.219 27.82 34.867 28.434 34.293 28.84 33.656 28.719 32.961 28.617 32.406 28.281 31.984 27.801 31.629 27.445 31.363 27.027 31.168 26.617 31.016 26.098 31.68 25.469 32.207 24.781 32.59 24.48 32.758 24.172 32.891 23.863 33.008 23.965 33.324 24.016 33.656 24.016 33.969 24.016 35.547 22.727 36.836 21.148 36.836 19.984 36.836 18.969 36.109 18.523 35.086 17.766 35.52 16.938 35.777 16.184 35.914 16.023 35.945 15.883 35.961 15.727 35.98 15.555 36.398 15.391 36.984 15.352 37.555 15.309 38.25 15.422 38.887 15.855 39.371 16.344 39.91 16.965 40.027 17.672 39.961 18.371 39.898 19.09 39.605 19.508 39.414 19.516 39.414 19.527 39.418 19.531 39.414L19.926 39.219 20.383 38.977 20.758 39.352C20.758 39.352 21.344 39.984 22.156 40.488 22.664 40.801 23.203 41.031 23.711 41.078ZM29.242 38.867C29.551 38.887 29.871 38.832 30.207 38.715 30.875 38.484 31.535 38.031 31.934 37.73L31.957 37.711C32 37.68 32.023 37.68 32.023 37.688L32.352 36.988 33.027 37.426C33.027 37.426 33.742 37.906 34.648 38.211 35.551 38.52 36.488 38.598 37.074 38.102H37.098V38.082C37.711 37.609 37.84 36.703 37.73 35.762 37.621 34.82 37.293 34.012 37.293 34.012L36.898 33.051H37.73C37.977 32.859 38.594 32.336 39.043 31.672 39.52 30.977 39.766 30.254 39.48 29.617 39.16 28.852 38.273 28.461 37.359 28.281 36.445 28.102 35.633 28.148 35.633 28.148L35.086 28.195 34.91 27.691C34.91 27.691 34.621 26.941 34.121 26.18 33.68 25.508 33.098 24.918 32.523 24.758 32.387 24.984 32.23 25.207 32.066 25.414 31.379 26.289 30.531 27.039 29.617 27.492 29.512 27.738 29.461 27.93 29.461 27.93L29.352 28.5H28.785C28.785 28.5 28.332 28.523 27.777 28.586 27.672 29.008 27.531 29.402 27.363 29.77 27.781 29.945 28.211 30.18 28.633 30.492 28.996 30.762 29.344 31.105 29.617 31.52 29.953 30.309 31.039 29.398 32.352 29.398 33.93 29.398 35.215 30.707 35.215 32.285 35.215 33.863 33.93 35.148 32.352 35.148 31.402 35.148 30.555 34.684 30.031 33.969 29.816 34.75 29.312 35.398 28.785 35.895 28.27 36.375 27.805 36.641 27.406 36.855 27.465 37.543 27.703 38.141 28.324 38.539V38.562H28.348C28.641 38.766 28.938 38.852 29.242 38.867ZM21.148 35.434C21.953 35.434 22.617 34.773 22.617 33.969 22.617 33.73 22.57 33.523 22.484 33.355 21.75 33.461 21.031 33.453 20.383 33.336 20.184 33.652 19.953 33.938 19.707 34.188 19.82 34.863 20.457 35.434 21.148 35.434ZM14.895 34.648C15.152 34.645 15.48 34.621 15.945 34.539 17.309 34.285 18.73 33.695 19.398 32.328 19.547 32.016 19.898 31.859 20.23 31.957 21.086 32.223 22.734 32.09 24.082 31.344 24.711 30.992 25.285 30.547 25.723 29.945 25.734 29.922 25.75 29.898 25.766 29.879 25.77 29.871 25.762 29.863 25.766 29.855 25.781 29.84 25.793 29.828 25.809 29.812 25.816 29.797 25.824 29.781 25.832 29.77 25.844 29.746 25.859 29.727 25.875 29.703 26.168 29.242 26.391 28.691 26.508 28.062 26.492 27.938 26.504 27.809 26.555 27.691 26.57 27.555 26.59 27.422 26.598 27.273 26.609 27.078 26.703 26.891 26.855 26.77 27.008 26.645 27.211 26.59 27.406 26.617 28.305 26.734 29.906 25.871 30.949 24.539 31.996 23.211 32.457 21.633 31.738 20.383 31.637 20.219 31.609 20.02 31.656 19.836 31.707 19.648 31.832 19.492 32 19.398 32.008 19.398 32.016 19.398 32.023 19.398 32.125 19.266 32.27 19.172 32.438 19.137 32.441 19.133 32.453 19.141 32.461 19.137 33.973 18.18 34.52 16.898 34.711 15.746 34.859 14.887 34.75 14.578 34.691 14.195L20.953 17.52 17.52 20.953 14.215 34.625C14.441 34.637 14.633 34.648 14.895 34.648ZM32.352 33.75C33.168 33.75 33.816 33.102 33.816 32.285 33.816 31.469 33.168 30.82 32.352 30.82 31.531 30.82 30.883 31.469 30.883 32.285 30.883 33.102 31.531 33.75 32.352 33.75ZM37.883 26.945C38.094 25.859 37.949 24.738 37.949 24.738L37.84 23.949H38.453L38.496 23.93C38.742 23.82 39.551 23.41 40.18 22.836 40.805 22.262 41.207 21.609 41.102 20.93 41.102 20.922 41.102 20.918 41.102 20.91 40.945 20.102 40.188 19.516 39.352 19.137 38.504 18.754 37.711 18.633 37.711 18.633L37.184 18.547 37.117 18.023C37.117 18.023 37 17.238 36.68 16.383 36.547 16.02 36.355 15.695 36.156 15.398 36.141 15.578 36.125 15.773 36.09 15.965 35.918 16.992 35.438 18.156 34.492 19.18 35.57 19.598 36.352 20.637 36.352 21.852 36.352 23.031 35.613 24.059 34.582 24.496 34.852 24.789 35.105 25.094 35.305 25.395 35.762 26.09 35.887 26.484 36.004 26.773 36.316 26.758 36.77 26.711 37.645 26.883 37.719 26.898 37.805 26.93 37.883 26.945ZM33.465 23.316C34.27 23.316 34.93 22.652 34.93 21.852 34.93 21.047 34.27 20.383 33.465 20.383 33.391 20.383 33.301 20.391 33.203 20.406 33.527 21.359 33.5 22.352 33.203 23.293 33.289 23.305 33.375 23.316 33.465 23.316ZM16.883 19.598 19.598 16.883 11.742 9.031C11.387 9.172 10.793 9.438 10.082 10.102 9.379 10.762 9.125 11.371 9.008 11.723ZM16.883 19.598"/>
</g>
</svg>
