<svg xmlns="http://www.w3.org/2000/svg" xmlns:xlink="http://www.w3.org/1999/xlink" version="1.1" width="50pt" height="50pt" viewBox="0 0 50 50">
<g>
<path fill="white" transform="matrix(1,0,0,-1,0,50)" d="M11.613 31.367C9.355 31.281 7.5 29.445 7.5 27.23V12.969C7.5 11.895 8.395 11 9.469 11H11.066C11.398 9.016 13.125 7.5 15.199 7.5 17.273 7.5 19 9.016 19.336 11H30.664C31 9.016 32.727 7.5 34.801 7.5 36.875 7.5 38.602 9.016 38.934 11H39.219C39.871 11 40.625 11.168 41.297 11.633 41.969 12.102 42.5 12.938 42.5 14.02V19.531C42.5 20.266 42.336 21.031 42.105 21.719V21.742C42.105 21.742 40.914 25.035 39.852 27.582 39.297 28.961 38.586 29.945 37.578 30.555 36.57 31.168 35.344 31.367 33.883 31.367ZM11.633 29.965H33.883C35.219 29.965 36.141 29.773 36.836 29.352 37.18 29.141 37.492 28.867 37.773 28.5H34.32C33.051 28.5 32 27.449 32 26.18V23.117C32 21.852 33.051 20.801 34.32 20.801H40.902C41.012 20.363 41.102 19.914 41.102 19.531V14.02C41.102 13.348 40.871 13.023 40.508 12.773 40.148 12.52 39.617 12.398 39.219 12.398H38.934C38.602 14.387 36.875 15.898 34.801 15.898 32.727 15.898 31 14.387 30.664 12.398H19.336C19 14.387 17.273 15.898 15.199 15.898 13.125 15.898 11.398 14.387 11.066 12.398H9.469C9.145 12.398 8.898 12.645 8.898 12.969V27.23C8.898 28.648 10.121 29.898 11.633 29.965ZM12.617 28.5C11.352 28.5 10.301 27.449 10.301 26.18V23.117C10.301 21.852 11.352 20.801 12.617 20.801H17.082C18.352 20.801 19.398 21.852 19.398 23.117V26.18C19.398 27.449 18.352 28.5 17.082 28.5ZM23.117 28.5C21.852 28.5 20.801 27.449 20.801 26.18V23.117C20.801 21.852 21.852 20.801 23.117 20.801H28.281C29.551 20.801 30.602 21.852 30.602 23.117V26.18C30.602 27.449 29.551 28.5 28.281 28.5ZM12.617 27.102H17.082C17.633 27.102 18 26.734 18 26.18V23.117C18 22.566 17.633 22.199 17.082 22.199H12.617C12.066 22.199 11.699 22.566 11.699 23.117V26.18C11.699 26.734 12.066 27.102 12.617 27.102ZM23.117 27.102H28.281C28.832 27.102 29.199 26.734 29.199 26.18V23.117C29.199 22.566 28.832 22.199 28.281 22.199H23.117C22.566 22.199 22.199 22.566 22.199 23.117V26.18C22.199 26.734 22.566 27.102 23.117 27.102ZM34.32 27.102H38.539C38.547 27.082 38.559 27.074 38.562 27.055V27.035C39.352 25.137 40.07 23.211 40.445 22.199H34.32C33.766 22.199 33.398 22.566 33.398 23.117V26.18C33.398 26.734 33.766 27.102 34.32 27.102ZM15.199 14.5C16.723 14.5 17.93 13.301 17.977 11.789 17.965 11.707 17.965 11.625 17.977 11.547 17.898 10.066 16.703 8.898 15.199 8.898 13.668 8.898 12.438 10.109 12.398 11.633 12.406 11.688 12.406 11.734 12.398 11.789 12.445 13.301 13.676 14.5 15.199 14.5ZM34.801 14.5C36.355 14.5 37.602 13.258 37.602 11.699 37.598 11.672 37.598 11.641 37.602 11.613 37.555 10.102 36.324 8.898 34.801 8.898 33.27 8.898 32.035 10.109 32 11.633 32.004 11.688 32.004 11.734 32 11.789 32.047 13.301 33.273 14.5 34.801 14.5ZM34.801 14.5"/>
</g>
</svg>
