<svg xmlns="http://www.w3.org/2000/svg" xmlns:xlink="http://www.w3.org/1999/xlink" version="1.1" width="50pt" height="50pt" viewBox="0 0 50 50">
<g>
<path transform="matrix(1,0,0,-1,0,50)" d="M17.801 42.602C12.066 42.602 7.398 37.934 7.398 32.199V17.801C7.398 12.066 12.066 7.398 17.801 7.398H32.199C37.934 7.398 42.602 12.066 42.602 17.801V32.199C42.602 37.934 37.934 42.602 32.199 42.602ZM17.801 41H32.199C37.07 41 41 37.07 41 32.199V17.801C41 12.93 37.07 9 32.199 9H17.801C12.93 9 9 12.93 9 17.801V32.199C9 37.07 12.93 41 17.801 41ZM34.602 36.199C33.715 36.199 33 35.484 33 34.602 33 33.715 33.715 33 34.602 33 35.484 33 36.199 33.715 36.199 34.602 36.199 35.484 35.484 36.199 34.602 36.199ZM25 33.801C20.148 33.801 16.199 29.852 16.199 25 16.199 20.148 20.148 16.199 25 16.199 29.852 16.199 33.801 20.148 33.801 25 33.801 29.852 29.852 33.801 25 33.801ZM25 32.199C28.984 32.199 32.199 28.984 32.199 25 32.199 21.016 28.984 17.801 25 17.801 21.016 17.801 17.801 21.016 17.801 25 17.801 28.984 21.016 32.199 25 32.199ZM25 32.199"/>
</g>
</svg>
