<svg xmlns="http://www.w3.org/2000/svg" xmlns:xlink="http://www.w3.org/1999/xlink" version="1.1" width="50pt" height="50pt" viewBox="0 0 50 50">
<g>
<path fill="#fff" transform="matrix(1,0,0,-1,0,50)" d="M15.508 36.398C13.016 36.398 10.984 35.656 9.602 34.273 8.215 32.895 7.5 30.902 7.5 28.586 7.5 28.035 7.637 27.301 7.805 26.508 7.941 25.879 8.117 25.34 8.266 24.848 8.137 24.727 8.02 24.684 7.895 24.496 7.633 24.109 7.445 23.535 7.523 22.879 7.723 21.168 8.734 20.531 9.207 20.273 9.363 19.406 9.773 18.387 10.477 17.32 11.195 16.234 12.211 15.215 13.43 14.586 13.441 14.578 13.457 14.574 13.473 14.566 13.945 14.004 14.66 13.602 15.461 13.602 16.156 13.602 16.75 13.93 17.211 14.367 18.586 14.961 19.676 16.117 20.473 17.301 20.512 17.359 20.543 17.418 20.582 17.477 20.664 17.41 20.762 17.367 20.867 17.344 20.867 17.344 21.91 16.98 23.25 16.621 24.578 16.266 26.191 15.906 27.516 15.898 28.559 14.637 29.863 13.801 31.301 13.801 32.73 13.801 34.02 14.641 35.062 15.898 35.098 15.898 35.137 15.898 35.172 15.898 39.359 15.898 41.977 16.621 41.977 16.621 42.227 16.688 42.418 16.887 42.477 17.141 42.539 17.391 42.453 17.656 42.258 17.824 41.117 18.844 40.996 19.883 41.145 21.305 41.293 22.723 41.801 24.402 41.801 26.27 41.801 27.879 41.535 29.777 40.598 31.344 39.699 32.844 38.082 33.965 35.785 34.055 35.441 34.504 34.066 36.199 31.039 36.199 28.023 36.199 25.742 34.949 24.258 33.422 23.711 32.859 23.273 32.281 22.922 31.695 22.828 31.906 22.723 32.125 22.594 32.328 22.043 33.199 21.051 33.855 19.773 33.992 19.496 34.508 18.414 36.398 15.508 36.398ZM15.508 34.996C18.102 34.996 18.742 33.137 18.742 33.137 18.852 32.871 19.113 32.695 19.398 32.699 20.438 32.699 20.992 32.246 21.414 31.586 21.832 30.922 22.004 30.027 22.004 29.375 22.004 27.594 21.598 25.836 21.281 24.867 21.172 24.555 21.301 24.207 21.586 24.039 21.625 24.012 21.77 23.902 21.871 23.73 21.973 23.562 22.062 23.359 22.023 23.031 21.938 22.289 21.629 21.883 21.367 21.633 21.109 21.379 20.93 21.324 20.93 21.324 20.676 21.23 20.5 21.004 20.473 20.734 20.422 20.258 20.008 19.117 19.312 18.086 18.617 17.055 17.641 16.09 16.645 15.66 16.543 15.617 16.453 15.547 16.383 15.461 16.156 15.184 15.84 15.004 15.461 15.004 15.082 15.004 14.75 15.184 14.523 15.461 14.449 15.547 14.359 15.617 14.258 15.66 13.273 16.09 12.336 17.055 11.656 18.086 10.977 19.117 10.547 20.254 10.496 20.734 10.469 21.004 10.293 21.23 10.039 21.324 10.039 21.324 9.07 21.57 8.898 23.031 8.863 23.344 8.941 23.543 9.055 23.711 9.164 23.875 9.332 23.992 9.402 24.039 9.684 24.211 9.801 24.559 9.688 24.867 9.547 25.277 9.344 26.066 9.184 26.816 9.023 27.566 8.898 28.32 8.898 28.586 8.898 30.625 9.5 32.191 10.586 33.27 11.668 34.348 13.285 34.996 15.508 34.996ZM31.039 34.801C33.848 34.801 34.91 33.027 34.91 33.027 35.039 32.824 35.258 32.699 35.5 32.699 37.539 32.699 38.656 31.855 39.395 30.621 40.133 29.391 40.398 27.711 40.398 26.27 40.398 24.664 39.934 23.047 39.766 21.434 39.637 20.191 39.762 18.906 40.508 17.758 39.633 17.586 38.227 17.371 36.023 17.32 36.98 19.016 37.602 21.141 37.602 23.402 37.602 27.812 34.582 30.141 34.582 30.141L33.945 30.621 33.555 29.922C33.555 29.922 32.629 28.266 30.25 27.516 29.414 27.254 28.18 27.125 27.078 26.641 26.527 26.398 26.004 26.043 25.613 25.504 25.223 24.961 25 24.25 25 23.402 25 21.168 25.586 19.062 26.508 17.387 25.586 17.504 24.512 17.734 23.602 17.977 22.309 18.324 21.324 18.68 21.324 18.68 21.305 18.688 21.281 18.695 21.258 18.699 21.516 19.25 21.695 19.773 21.785 20.254 21.969 20.348 22.078 20.359 22.352 20.625 22.809 21.062 23.277 21.797 23.402 22.855 23.48 23.496 23.312 24.055 23.074 24.453 22.961 24.641 22.848 24.699 22.727 24.824 23.008 25.77 23.273 27.078 23.359 28.543 23.391 28.629 23.406 28.715 23.402 28.805 23.402 29.535 24 31.141 25.262 32.438 26.523 33.734 28.406 34.801 31.039 34.801ZM18.633 31.32C18.605 31.316 18.574 31.309 18.547 31.301 18.387 31.273 18.238 31.184 18.133 31.059 18.133 31.051 18.133 31.047 18.133 31.039 18.059 30.957 18.004 30.859 17.977 30.754 17.895 30.637 17.738 30.48 17.453 30.273 16.957 29.906 16.125 29.508 14.719 29.508 13.676 29.508 12.707 29.297 11.918 28.828 11.133 28.359 10.527 27.613 10.32 26.684 10.23 26.43 10.297 26.145 10.484 25.953 10.676 25.766 10.961 25.699 11.215 25.789 11.469 25.879 11.652 26.109 11.68 26.379 11.797 26.918 12.105 27.32 12.617 27.625 13.133 27.93 13.875 28.105 14.719 28.105 16.398 28.105 17.559 28.605 18.285 29.133 18.418 29.234 18.527 29.316 18.633 29.418 18.988 28.785 19.398 27.77 19.398 26.531 19.398 26.281 19.527 26.043 19.746 25.914 19.965 25.789 20.234 25.789 20.453 25.914 20.672 26.043 20.801 26.281 20.801 26.531 20.801 29.027 19.492 30.746 19.312 30.973 19.281 31.02 19.242 31.066 19.203 31.102 19.195 31.109 19.188 31.117 19.18 31.125 19.168 31.141 19.152 31.156 19.137 31.168 19.129 31.168 19.125 31.168 19.117 31.168 19.105 31.176 19.102 31.184 19.094 31.191 19.086 31.199 19.078 31.203 19.07 31.211 19.059 31.219 19.043 31.23 19.027 31.234 19.02 31.234 19.016 31.234 19.008 31.234 18.992 31.242 18.977 31.25 18.961 31.258 18.934 31.266 18.906 31.273 18.875 31.277 18.859 31.285 18.844 31.293 18.832 31.301 18.77 31.316 18.699 31.324 18.633 31.32ZM34.188 28.523C34.785 27.977 36.199 26.5 36.199 23.402 36.199 21.188 35.527 19.078 34.559 17.562 33.59 16.047 32.363 15.199 31.301 15.199 30.234 15.199 29.008 16.031 28.039 17.539 27.074 19.051 26.398 21.168 26.398 23.402 26.398 24.023 26.547 24.41 26.75 24.695 26.953 24.977 27.246 25.195 27.648 25.371 28.449 25.727 29.617 25.852 30.664 26.18 32.672 26.812 33.641 27.832 34.188 28.523ZM12.398 24.301C12.016 24.301 11.699 23.984 11.699 23.602 11.699 23.215 12.016 22.898 12.398 22.898 12.785 22.898 13.102 23.215 13.102 23.602 13.102 23.984 12.785 24.301 12.398 24.301ZM18.699 24.301C18.312 24.301 18 23.984 18 23.602 18 23.215 18.312 22.898 18.699 22.898 19.086 22.898 19.398 23.215 19.398 23.602 19.398 23.984 19.086 24.301 18.699 24.301ZM28.5 23.602C28.113 23.602 27.801 23.285 27.801 22.898 27.801 22.516 28.113 22.199 28.5 22.199 28.887 22.199 29.199 22.516 29.199 22.898 29.199 23.285 28.887 23.602 28.5 23.602ZM34.102 23.602C33.715 23.602 33.398 23.285 33.398 22.898 33.398 22.516 33.715 22.199 34.102 22.199 34.484 22.199 34.801 22.516 34.801 22.898 34.801 23.285 34.484 23.602 34.102 23.602ZM34.102 23.602"/>
</g>
</svg>
