<svg xmlns="http://www.w3.org/2000/svg" xmlns:xlink="http://www.w3.org/1999/xlink" version="1.1" width="50pt" height="50pt" viewBox="0 0 50 50">
<g>
<path fill="white" transform="matrix(1,0,0,-1,0,50)" d="M24.176 39.699C23.195 39.699 22.379 39.016 22.008 38.062L21.812 37.602H20.102C20.102 37.984 19.785 38.301 19.398 38.301H17.375C16.992 38.301 16.68 37.984 16.676 37.602V37.309C15.414 36.805 14.5 35.613 14.5 34.176V26.324C14.5 24.441 16.043 22.898 17.922 22.898H32.078C33.957 22.898 35.5 24.441 35.5 26.324V34.176C35.5 36.059 33.957 37.602 32.078 37.602H31.453L31.258 38.062C30.887 39.016 30.07 39.699 29.09 39.699ZM24.176 38.301H29.09C29.27 38.301 29.781 37.992 29.953 37.555 29.953 37.547 29.957 37.543 29.961 37.535L30.344 36.625C30.453 36.371 30.707 36.199 30.988 36.199H32.078C33.191 36.199 34.102 35.293 34.102 34.176V26.324C34.102 25.207 33.191 24.301 32.078 24.301H17.922C16.809 24.301 15.898 25.207 15.898 26.324V34.176C15.898 35.152 16.602 35.969 17.52 36.16 17.844 36.227 18.078 36.512 18.078 36.844V36.898H18.699C18.699 36.516 19.016 36.199 19.398 36.199H22.277C22.559 36.199 22.812 36.371 22.922 36.625L23.305 37.535C23.309 37.543 23.312 37.547 23.316 37.555 23.484 37.992 23.992 38.301 24.176 38.301ZM26.398 35.5C23.703 35.5 21.5 33.297 21.5 30.602 21.5 27.902 23.703 25.699 26.398 25.699 29.098 25.699 31.301 27.902 31.301 30.602 31.301 33.297 29.098 35.5 26.398 35.5ZM18 34.801C17.613 34.801 17.301 34.484 17.301 34.102 17.301 33.715 17.613 33.398 18 33.398 18.387 33.398 18.699 33.715 18.699 34.102 18.699 34.484 18.387 34.801 18 34.801ZM26.398 34.102C28.34 34.102 29.898 32.543 29.898 30.602 29.898 28.66 28.34 27.102 26.398 27.102 24.457 27.102 22.898 28.66 22.898 30.602 22.898 32.543 24.457 34.102 26.398 34.102ZM21.5 22.199V20.801H23.102L17.168 10.301H18.777L24.301 20.074V10.301H25.699V20.055L31.102 10.301H32.699L26.891 20.801H28.5V22.199ZM21.5 22.199"/>
</g>
</svg>
