<svg xmlns="http://www.w3.org/2000/svg" xmlns:xlink="http://www.w3.org/1999/xlink" version="1.1" width="50pt" height="50pt" viewBox="0 0 50 50">
<g>
<path fill="white" transform="matrix(1,0,0,-1,0,50)" d="M10.191 40.398C9.684 40.398 9.172 40.191 8.789 39.809 8.023 39.039 8.023 37.777 8.789 37.008L14.5 31.301H8.898C8.133 31.301 7.5 30.664 7.5 29.898V25.699C7.5 24.934 8.133 24.301 8.898 24.301H9.227L12.969 11.328C13.184 10.59 13.84 10.301 14.5 10.301H35.5C36.16 10.301 36.816 10.59 37.031 11.328L40.773 24.301H41.102C41.867 24.301 42.5 24.934 42.5 25.699V29.898C42.5 30.664 41.867 31.301 41.102 31.301H35.5L41.211 37.008C41.977 37.777 41.977 39.039 41.211 39.809 40.828 40.191 40.316 40.398 39.809 40.398 39.301 40.398 38.793 40.191 38.41 39.809L29.879 31.301H20.121L11.59 39.809C11.207 40.191 10.699 40.398 10.191 40.398ZM10.168 39C10.312 39 10.469 38.941 10.586 38.824L19.926 29.484C20.16 29.25 20.16 28.91 19.926 28.676 19.809 28.559 19.68 28.5 19.531 28.5 19.383 28.5 19.234 28.559 19.117 28.676L9.773 38.016C9.543 38.25 9.543 38.594 9.773 38.824 9.891 38.941 10.023 39 10.168 39ZM39.832 39C39.977 39 40.109 38.941 40.227 38.824 40.457 38.594 40.457 38.25 40.227 38.016L30.883 28.676C30.766 28.559 30.617 28.5 30.469 28.5 30.32 28.5 30.191 28.559 30.074 28.676 29.84 28.91 29.84 29.25 30.074 29.484L39.414 38.824C39.531 38.941 39.688 39 39.832 39ZM8.898 29.898H15.898L18.109 27.691C18.117 27.684 18.125 27.676 18.133 27.668 18.516 27.285 19.023 27.102 19.531 27.102 20.039 27.102 20.547 27.309 20.93 27.691 21.523 28.285 21.648 29.172 21.324 29.898H28.676C28.352 29.172 28.477 28.285 29.07 27.691 29.453 27.309 29.961 27.102 30.469 27.102 30.977 27.102 31.484 27.285 31.867 27.668 31.875 27.676 31.883 27.684 31.891 27.691L34.102 29.898H41.102V25.699H8.898ZM10.695 24.301H18.766C18.215 23.945 17.848 23.336 17.848 22.637V14.871C17.848 13.781 18.746 12.883 19.836 12.883 20.93 12.883 21.828 13.781 21.828 14.871V22.637C21.828 23.336 21.461 23.945 20.91 24.301H23.93C23.375 23.945 23.008 23.336 23.008 22.637V14.871C23.008 13.781 23.91 12.883 25 12.883 26.09 12.883 26.992 13.781 26.992 14.871V22.637C26.992 23.336 26.625 23.945 26.07 24.301H29.09C28.539 23.945 28.172 23.336 28.172 22.637V14.871C28.172 13.781 29.07 12.883 30.164 12.883 31.254 12.883 32.152 13.781 32.152 14.871V22.637C32.152 23.336 31.785 23.945 31.234 24.301H39.305L35.676 11.699C35.723 11.867 35.609 11.699 35.5 11.699H14.5C14.391 11.699 14.277 11.867 14.324 11.699ZM19.836 23.227C20.168 23.227 20.43 22.969 20.43 22.637V14.871C20.43 14.539 20.168 14.281 19.836 14.281 19.508 14.281 19.246 14.539 19.246 14.871V22.637C19.246 22.969 19.508 23.227 19.836 23.227ZM25 23.227C25.332 23.227 25.59 22.969 25.59 22.637V14.871C25.59 14.539 25.332 14.281 25 14.281 24.668 14.281 24.41 14.539 24.41 14.871V22.637C24.41 22.969 24.668 23.227 25 23.227ZM30.164 23.227C30.492 23.227 30.754 22.969 30.754 22.637V14.871C30.754 14.539 30.492 14.281 30.164 14.281 29.832 14.281 29.57 14.539 29.57 14.871V22.637C29.57 22.969 29.832 23.227 30.164 23.227ZM30.164 23.227"/>
</g>
</svg>
