<svg xmlns="http://www.w3.org/2000/svg" xmlns:xlink="http://www.w3.org/1999/xlink" version="1.1" width="50pt" height="50pt" viewBox="0 0 50 50">
<g>
<path fill="white" transform="matrix(1,0,0,-1,0,50)" d="M17.988 30.609C17.957 30.609 17.922 30.605 17.887 30.602H15.312C14.559 30.602 13.863 30.195 13.488 29.543L11.668 26.355 9.398 26.133C8.324 26.031 7.5 25.121 7.5 24.047V20.801C7.5 19.648 8.449 18.699 9.602 18.699H11.102C11.414 17.5 12.504 16.602 13.801 16.602 15.098 16.602 16.184 17.5 16.5 18.699H34.199C34.516 17.5 35.605 16.602 36.898 16.602 38.195 16.602 39.285 17.5 39.598 18.699H40.398C41.551 18.699 42.5 19.648 42.5 20.801V23.121C42.5 24.113 41.793 24.977 40.824 25.18L35.293 26.316 32.668 29.379C32.004 30.156 31.031 30.602 30.012 30.602H27.91C27.867 30.605 27.828 30.609 27.789 30.609 27.758 30.609 27.719 30.605 27.688 30.602H18.109C18.066 30.605 18.031 30.609 17.988 30.609ZM15.312 29.199H17.301V26.398H13.309L14.703 28.848C14.832 29.066 15.059 29.199 15.312 29.199ZM18.699 29.199H27.102V26.398H18.699ZM28.5 29.199H30.012C30.625 29.199 31.207 28.934 31.605 28.469L33.379 26.398H28.5ZM12.188 25H17.883C17.961 24.984 18.035 24.984 18.109 25H27.684C27.758 24.984 27.836 24.984 27.91 25H34.742L40.543 23.809C40.871 23.738 41.102 23.457 41.102 23.121V22.898H40.398V21.5H41.102V20.801C41.102 20.402 40.797 20.102 40.398 20.102H39.598C39.285 21.301 38.195 22.199 36.898 22.199 35.605 22.199 34.516 21.301 34.203 20.102H16.5C16.184 21.301 15.098 22.199 13.801 22.199 12.504 22.199 11.414 21.301 11.102 20.102H9.602C9.203 20.102 8.898 20.402 8.898 20.801V22.199H9.602V23.602H8.898V24.047C8.898 24.41 9.164 24.703 9.531 24.738ZM13.801 20.801C14.539 20.801 15.125 20.246 15.188 19.527 15.172 19.445 15.172 19.363 15.188 19.281 15.125 18.559 14.539 18 13.801 18 13.062 18 12.48 18.551 12.414 19.273 12.426 19.355 12.426 19.441 12.41 19.523 12.473 20.246 13.062 20.801 13.801 20.801ZM36.898 20.801C37.684 20.801 38.301 20.184 38.301 19.398 38.301 18.617 37.684 18 36.898 18 36.117 18 35.5 18.617 35.5 19.398 35.5 20.184 36.117 20.801 36.898 20.801ZM36.898 20.801"/>
</g>
</svg>
