<svg xmlns="http://www.w3.org/2000/svg" xmlns:xlink="http://www.w3.org/1999/xlink" version="1.1" width="50pt" height="50pt" viewBox="0 0 50 50">
<g>
<path fill="white" transform="matrix(1,0,0,-1,0,50)" d="M15.199 39.699C11.738 39.699 8.898 36.863 8.898 33.398 8.898 31.426 9.828 29.656 11.262 28.5H10.301C9.148 28.5 8.199 27.551 8.199 26.398V11.699C8.199 10.547 9.148 9.602 10.301 9.602H32.699C33.852 9.602 34.801 10.547 34.801 11.699V14.5H36.199C36.254 14.5 36.41 14.441 36.637 14.238 36.863 14.031 37.125 13.711 37.402 13.363 37.684 13.012 37.973 12.633 38.32 12.312 38.672 11.992 39.125 11.699 39.699 11.699H41.801V25.699H39.832C39.258 25.699 38.836 25.398 38.477 25.086 38.113 24.777 37.797 24.41 37.492 24.059 37.184 23.711 36.883 23.375 36.637 23.164 36.391 22.949 36.223 22.898 36.199 22.898H34.801V26.398C34.801 27.551 33.852 28.5 32.699 28.5H31.039C32.473 29.656 33.398 31.426 33.398 33.398 33.398 36.863 30.562 39.699 27.102 39.699 24.352 39.699 22.004 37.902 21.148 35.434 20.297 37.902 17.949 39.699 15.199 39.699ZM15.199 38.301C17.898 38.301 20.102 36.098 20.102 33.398 20.102 30.703 17.898 28.5 15.199 28.5 12.5 28.5 10.301 30.703 10.301 33.398 10.301 36.098 12.5 38.301 15.199 38.301ZM27.102 38.301C29.797 38.301 32 36.098 32 33.398 32 30.703 29.797 28.5 27.102 28.5 24.402 28.5 22.199 30.703 22.199 33.398 22.199 36.098 24.402 38.301 27.102 38.301ZM21.148 31.367C21.539 30.23 22.242 29.242 23.164 28.5H19.137C20.055 29.242 20.758 30.23 21.148 31.367ZM10.301 27.102H32.699C33.09 27.102 33.398 26.789 33.398 26.398V22.332C33.383 22.238 33.383 22.141 33.398 22.047V15.332C33.383 15.238 33.383 15.141 33.398 15.047V11.699C33.398 11.312 33.09 11 32.699 11H10.301C9.91 11 9.602 11.312 9.602 11.699V26.398C9.602 26.789 9.91 27.102 10.301 27.102ZM39.832 24.301H40.398V13.102H39.699C39.645 13.102 39.488 13.156 39.262 13.363 39.035 13.566 38.777 13.887 38.496 14.238 38.219 14.586 37.93 14.969 37.578 15.289 37.227 15.609 36.773 15.898 36.199 15.898H34.801V21.5H36.199C36.773 21.5 37.195 21.801 37.555 22.113 37.918 22.426 38.234 22.789 38.539 23.141 38.848 23.492 39.148 23.824 39.395 24.039 39.641 24.25 39.809 24.301 39.832 24.301ZM39.832 24.301"/>
</g>
</svg>
