<svg xmlns="http://www.w3.org/2000/svg" xmlns:xlink="http://www.w3.org/1999/xlink" version="1.1" width="50pt" height="50pt" viewBox="0 0 50 50">
<g>
<path fill="white" transform="matrix(1,0,0,-1,0,50)" d="M19.988 42.5C18.359 42.5 17.273 42.32 16.574 42.121 16.223 42.027 15.969 41.926 15.789 41.84 15.617 41.758 15.48 41.656 15.48 41.656L15.242 41.484 15.207 41.188C15.207 41.188 14.5 35.59 14.5 32 14.5 29.84 15.559 28.551 16.504 27.773 16.98 27.383 17.422 27.09 17.688 26.852 17.957 26.613 18 26.516 18 26.398 18 25.742 17.824 23.793 17.648 21.629 17.477 19.465 17.297 17.043 17.301 15.199 17.301 11.871 17.531 10.074 18.004 8.957 18.242 8.398 18.57 7.992 18.973 7.762 19.375 7.531 19.785 7.5 20.102 7.5 20.41 7.5 20.824 7.527 21.227 7.758 21.633 7.988 21.961 8.398 22.195 8.957 22.668 10.074 22.902 11.871 22.898 15.199 22.898 17.039 22.727 19.465 22.551 21.629 22.371 23.793 22.199 25.738 22.199 26.398 22.199 26.52 22.242 26.609 22.508 26.84 22.773 27.074 23.219 27.363 23.691 27.75 24.641 28.523 25.699 29.816 25.699 32 25.699 34.441 24.996 41.172 24.996 41.172L24.957 41.52 24.66 41.699C24.66 41.699 24.246 41.938 23.5 42.129 22.754 42.32 21.617 42.5 19.988 42.5ZM29.203 42.5C29.016 42.5 28.84 42.426 28.707 42.297 28.574 42.164 28.5 41.984 28.5 41.801V34.102C28.5 33.609 28.57 27.805 28.57 26.293 28.57 25.648 28.379 22.98 28.188 20.223 27.996 17.465 27.801 14.562 27.801 13.102 27.801 10.98 27.863 9.746 28.133 8.883 28.27 8.449 28.488 8.07 28.828 7.832 29.172 7.59 29.562 7.531 29.898 7.531 30.676 7.531 31.668 8.023 32.324 9.285 32.977 10.551 33.398 12.562 33.398 15.898 33.398 17.777 33.027 19.234 32.668 20.375 32.309 21.52 32 22.352 32 22.898 32 23.879 32.789 25.297 33.688 26.934 34.586 28.57 35.551 30.465 35.551 32.645V32.648C35.551 33.867 35.359 35.723 34.5 37.586 33.641 39.453 32.09 41.324 29.477 42.441 29.391 42.48 29.297 42.5 29.203 42.5ZM19.988 41.102C20.281 41.102 20.543 41.09 20.801 41.078V34.102C20.797 33.848 20.93 33.613 21.148 33.484 21.367 33.359 21.633 33.359 21.852 33.484 22.07 33.613 22.203 33.848 22.199 34.102V40.953C22.578 40.895 22.906 40.836 23.152 40.773 23.535 40.672 23.535 40.652 23.637 40.605 23.695 40.016 24.301 34.055 24.301 32 24.301 30.227 23.609 29.488 22.809 28.836 22.406 28.508 21.977 28.234 21.586 27.895 21.195 27.551 20.801 27.047 20.801 26.398 20.801 25.527 20.977 23.672 21.152 21.516 21.328 19.359 21.5 16.949 21.5 15.199 21.504 11.945 21.219 10.238 20.91 9.5 20.754 9.133 20.621 9.027 20.531 8.973 20.441 8.922 20.324 8.898 20.102 8.898 19.879 8.898 19.762 8.922 19.672 8.977 19.578 9.027 19.449 9.137 19.293 9.5 18.984 10.238 18.699 11.945 18.699 15.199 18.695 16.953 18.871 19.359 19.047 21.516 19.223 23.668 19.398 25.527 19.398 26.398 19.398 27.051 19.008 27.551 18.621 27.898 18.23 28.242 17.797 28.523 17.395 28.852 16.594 29.516 15.898 30.258 15.898 32 15.898 35.203 16.48 40.043 16.555 40.637 16.656 40.68 16.75 40.719 16.949 40.777 17.203 40.848 17.559 40.918 18 40.98V34.102C17.996 33.848 18.129 33.613 18.348 33.484 18.566 33.359 18.832 33.359 19.051 33.484 19.27 33.613 19.402 33.848 19.398 34.102V41.082C19.594 41.09 19.773 41.102 19.988 41.102ZM29.898 40.5C31.492 39.535 32.617 38.328 33.227 37 33.969 35.387 34.152 33.715 34.152 32.645 34.148 30.887 33.34 29.207 32.461 27.605 31.582 26.004 30.602 24.516 30.602 22.898 30.602 21.922 30.992 21.039 31.332 19.957 31.672 18.875 32 17.594 32 15.898 32 12.684 31.559 10.859 31.078 9.93 30.598 9 30.191 8.934 29.898 8.934 29.707 8.934 29.66 8.961 29.637 8.973 29.617 8.988 29.551 9.043 29.469 9.301 29.305 9.82 29.199 11.02 29.199 13.102 29.199 14.438 29.391 17.371 29.582 20.125 29.773 22.883 29.973 25.414 29.969 26.297 29.969 27.844 29.898 33.734 29.898 34.102ZM29.898 40.5"/>
</g>
</svg>
