<svg xmlns="http://www.w3.org/2000/svg" xmlns:xlink="http://www.w3.org/1999/xlink" version="1.1" width="50pt" height="50pt" viewBox="0 0 50 50">
<g>
<path fill="white" transform="matrix(1,0,0,-1,0,50)" d="M11 37.602C9.848 37.602 8.898 36.652 8.898 35.5 8.898 35.035 9.055 34.602 9.316 34.254 9.086 34.043 8.898 33.762 8.898 33.398V16.184C8.613 16.062 8.355 15.918 8.133 15.727 7.785 15.426 7.5 15.012 7.5 14.5 7.5 13.734 8.07 13.199 8.703 12.883 9.336 12.562 10.133 12.398 11 12.398 11.867 12.398 12.664 12.562 13.297 12.883 13.93 13.199 14.5 13.734 14.5 14.5 14.5 15.012 14.215 15.426 13.867 15.727 13.645 15.918 13.387 16.062 13.102 16.184V30.949C15.957 29.766 20.074 28.5 25 28.5 29.926 28.5 34.043 29.766 36.898 30.949V16.184C36.613 16.062 36.355 15.918 36.133 15.727 35.785 15.426 35.5 15.012 35.5 14.5 35.5 13.734 36.07 13.199 36.703 12.883 37.336 12.562 38.133 12.398 39 12.398 39.867 12.398 40.664 12.562 41.297 12.883 41.93 13.199 42.5 13.734 42.5 14.5 42.5 15.012 42.215 15.426 41.867 15.727 41.645 15.918 41.387 16.062 41.102 16.184V33.398C41.102 33.762 40.914 34.043 40.684 34.254 40.945 34.602 41.102 35.035 41.102 35.5 41.102 36.652 40.152 37.602 39 37.602 37.848 37.602 36.898 36.652 36.898 35.5 36.898 35.035 37.055 34.602 37.316 34.254 37.086 34.043 36.898 33.762 36.898 33.398V32.461C34.148 31.262 30.008 29.898 25 29.898 19.992 29.898 15.852 31.262 13.102 32.461V33.398C13.102 33.762 12.914 34.043 12.684 34.254 12.945 34.602 13.102 35.035 13.102 35.5 13.102 36.652 12.152 37.602 11 37.602ZM11 36.199C11.395 36.199 11.699 35.895 11.699 35.5 11.699 35.105 11.395 34.801 11 34.801 10.605 34.801 10.301 35.105 10.301 35.5 10.301 35.895 10.605 36.199 11 36.199ZM39 36.199C39.395 36.199 39.699 35.895 39.699 35.5 39.699 35.105 39.395 34.801 39 34.801 38.605 34.801 38.301 35.105 38.301 35.5 38.301 35.895 38.605 36.199 39 36.199ZM11 33.398C11.301 33.398 11.559 33.328 11.68 33.27 11.695 33.258 11.691 33.273 11.699 33.27V32.152C11.699 32.133 11.699 32.109 11.699 32.086 11.695 32.035 11.695 31.984 11.699 31.934 11.699 31.914 11.699 31.891 11.699 31.867V16.031C11.691 16.027 11.695 16.043 11.68 16.031 11.559 15.973 11.301 15.898 11 15.898 10.715 15.898 10.473 15.953 10.344 16.008 10.328 16.016 10.312 16.027 10.301 16.031V33.27C10.309 33.273 10.305 33.258 10.32 33.27 10.441 33.328 10.699 33.398 11 33.398ZM39 33.398C39.301 33.398 39.559 33.328 39.68 33.27 39.695 33.258 39.691 33.273 39.699 33.27V16.031C39.691 16.027 39.695 16.043 39.68 16.031 39.559 15.973 39.301 15.898 39 15.898 38.715 15.898 38.473 15.953 38.344 16.008 38.328 16.016 38.312 16.027 38.301 16.031V31.648C38.461 31.887 38.461 32.199 38.301 32.438V33.27C38.309 33.273 38.305 33.258 38.32 33.27 38.441 33.328 38.699 33.398 39 33.398ZM21.367 25C21.164 24.961 20.988 24.832 20.887 24.648L15.289 14.852C15.16 14.633 15.16 14.363 15.289 14.148 15.418 13.93 15.648 13.797 15.898 13.801H34.102C34.352 13.797 34.586 13.93 34.711 14.148 34.84 14.363 34.84 14.633 34.711 14.852L29.113 24.648C28.988 24.867 28.75 25.004 28.5 25H21.5C21.477 25 21.457 25 21.434 25 21.414 25 21.391 25 21.367 25ZM21.914 23.602H28.086L32.898 15.199H17.102ZM9.492 14.895C9.562 14.844 9.637 14.797 9.711 14.762 10.094 14.578 10.531 14.5 11 14.5 11.469 14.5 11.906 14.578 12.289 14.762 12.363 14.797 12.438 14.844 12.508 14.895 12.699 14.824 12.875 14.758 12.969 14.676 13.109 14.555 13.102 14.477 13.102 14.5 13.102 14.496 13.043 14.32 12.664 14.129 12.281 13.938 11.676 13.801 11 13.801 10.324 13.801 9.719 13.938 9.336 14.129 8.957 14.32 8.898 14.496 8.898 14.5 8.898 14.477 8.891 14.555 9.031 14.676 9.125 14.758 9.301 14.824 9.492 14.895ZM37.492 14.895C37.562 14.844 37.637 14.797 37.711 14.762 38.094 14.578 38.531 14.5 39 14.5 39.469 14.5 39.906 14.578 40.289 14.762 40.363 14.797 40.438 14.844 40.508 14.895 40.699 14.824 40.875 14.758 40.969 14.676 41.109 14.555 41.102 14.477 41.102 14.5 41.102 14.496 41.043 14.32 40.664 14.129 40.281 13.938 39.676 13.801 39 13.801 38.324 13.801 37.719 13.938 37.336 14.129 36.957 14.32 36.898 14.496 36.898 14.5 36.898 14.477 36.891 14.555 37.031 14.676 37.125 14.758 37.301 14.824 37.492 14.895ZM37.492 14.895"/>
</g>
</svg>
