<svg xmlns="http://www.w3.org/2000/svg" xmlns:xlink="http://www.w3.org/1999/xlink" version="1.1" width="50pt" height="50pt" viewBox="0 0 50 50">
<g>
<path fill="white" transform="matrix(1,0,0,-1,0,50)" d="M21.414 39.414C18.141 39.355 16.055 38.035 15.156 35.98 14.301 34.027 14.492 31.559 15.113 29.004 14.777 28.613 14.516 28.086 14.609 27.297 14.715 26.438 14.953 25.824 15.289 25.395 15.473 25.16 15.719 25.137 15.945 25.023 16.066 24.289 16.273 23.555 16.578 22.945 16.754 22.59 16.953 22.266 17.148 22.004 17.234 21.887 17.359 21.816 17.453 21.719 17.457 20.855 17.461 20.137 17.387 19.227 17.16 18.676 16.629 18.234 15.77 17.805 14.879 17.359 13.723 16.949 12.555 16.445 11.383 15.945 10.18 15.332 9.227 14.367 8.277 13.406 7.605 12.086 7.5 10.344L7.457 9.602H35.543L35.5 10.344C35.426 11.555 35.086 12.559 34.559 13.383H42.543L42.5 14.129C42.41 15.617 41.828 16.777 41.012 17.605 40.199 18.434 39.18 18.953 38.191 19.379 37.203 19.805 36.234 20.125 35.5 20.492 34.789 20.848 34.387 21.207 34.211 21.633 34.152 22.367 34.137 22.965 34.145 23.664 34.211 23.742 34.32 23.797 34.383 23.883 34.551 24.113 34.719 24.395 34.867 24.695 35.113 25.203 35.285 25.809 35.391 26.422 35.574 26.523 35.77 26.539 35.914 26.727 36.215 27.109 36.414 27.629 36.508 28.367V28.391C36.582 29.031 36.375 29.461 36.113 29.812 36.402 30.762 36.758 32.258 36.637 33.816 36.57 34.676 36.352 35.539 35.828 36.266 35.332 36.953 34.516 37.461 33.488 37.645 32.82 38.383 31.766 38.715 30.535 38.715 28.836 38.688 27.52 38.266 26.555 37.512 26.113 37.785 25.598 37.984 25.023 38.102 24.285 39.059 22.961 39.414 21.434 39.414ZM21.434 38.016C21.441 38.016 21.449 38.016 21.457 38.016 22.863 38.012 23.777 37.598 24.039 37.141L24.211 36.855 24.539 36.812C25.516 36.68 26.07 36.285 26.465 35.742 26.859 35.195 27.078 34.438 27.145 33.598 27.273 31.918 26.789 29.961 26.488 29.047L26.312 28.5 26.793 28.215C26.766 28.234 27.062 28.031 26.992 27.449 26.91 26.766 26.746 26.406 26.617 26.246 26.492 26.086 26.426 26.094 26.422 26.094L25.832 26.051 25.766 25.48C25.699 24.875 25.457 24.137 25.176 23.555 25.031 23.266 24.887 23.012 24.758 22.836 24.633 22.656 24.492 22.559 24.562 22.594L24.191 22.398V21.98C24.191 20.969 24.148 20.137 24.258 18.961V18.875L24.301 18.789C24.699 17.711 25.625 17.043 26.641 16.535 27.656 16.027 28.824 15.652 29.922 15.18 30.859 14.773 31.719 14.293 32.414 13.691 32.418 13.688 32.414 13.672 32.414 13.668 32.449 13.637 32.488 13.605 32.523 13.582 32.57 13.531 32.621 13.484 32.68 13.449 32.68 13.445 32.695 13.453 32.699 13.449 32.723 13.43 32.742 13.406 32.766 13.383 33.355 12.785 33.727 11.992 33.926 11H9.074C9.273 11.988 9.641 12.785 10.234 13.383 10.98 14.141 12 14.703 13.102 15.18 14.203 15.652 15.359 16.027 16.383 16.535 17.402 17.043 18.344 17.711 18.742 18.789L18.789 18.961C18.895 20.137 18.852 20.969 18.852 21.98V22.398L18.48 22.594C18.543 22.562 18.395 22.656 18.262 22.836 18.133 23.012 17.969 23.266 17.824 23.555 17.535 24.137 17.297 24.883 17.234 25.48L17.168 26.051 16.578 26.094C16.574 26.094 16.508 26.086 16.383 26.246 16.254 26.406 16.09 26.766 16.008 27.449 15.941 28.031 16.234 28.234 16.207 28.215L16.664 28.5 16.535 29.004C15.875 31.539 15.762 33.844 16.445 35.414 17.129 36.973 18.523 37.957 21.434 38.016ZM30.535 37.316C30.543 37.316 30.547 37.316 30.555 37.316 31.723 37.309 32.449 36.965 32.633 36.637L32.809 36.352 33.137 36.289C33.934 36.18 34.375 35.891 34.691 35.457 35.004 35.023 35.184 34.402 35.238 33.707 35.348 32.316 34.941 30.664 34.691 29.898L34.516 29.375 34.996 29.09C34.934 29.129 35.184 28.996 35.129 28.543 35.059 27.977 34.914 27.695 34.82 27.582 34.73 27.465 34.711 27.492 34.734 27.492L34.145 27.449 34.102 26.883C34.047 26.391 33.828 25.785 33.598 25.305 33.48 25.07 33.371 24.859 33.27 24.715 33.207 24.633 33.164 24.566 33.137 24.539H33.117C33.113 24.539 33.117 24.52 33.117 24.52L32.742 24.344V23.93C32.742 23.078 32.719 22.363 32.809 21.367V21.281L32.852 21.195C33.207 20.25 34.02 19.68 34.887 19.246 35.754 18.812 36.727 18.484 37.645 18.086 38.562 17.691 39.398 17.238 40.008 16.621 40.465 16.156 40.754 15.535 40.926 14.785H33.312C32.453 15.516 31.457 16.02 30.469 16.445 29.305 16.949 28.16 17.359 27.273 17.805 26.426 18.23 25.891 18.66 25.656 19.203 25.578 20.125 25.586 20.848 25.59 21.719 25.68 21.816 25.812 21.887 25.898 22.004 26.09 22.27 26.273 22.59 26.445 22.945 26.742 23.555 26.957 24.293 27.078 25.023 27.297 25.137 27.531 25.164 27.711 25.395 28.047 25.824 28.285 26.438 28.391 27.297 28.484 28.062 28.227 28.57 27.91 28.961 28.25 30.07 28.688 31.863 28.543 33.707 28.465 34.711 28.207 35.715 27.602 36.551 27.602 36.555 27.605 36.566 27.602 36.57 28.262 37.008 29.199 37.289 30.535 37.316ZM30.535 37.316"/>
</g>
</svg>
