<svg xmlns="http://www.w3.org/2000/svg" xmlns:xlink="http://www.w3.org/1999/xlink" version="1.1" width="50pt" height="50pt" viewBox="0 0 50 50">
<g>
<path fill="white" transform="matrix(1,0,0,-1,0,50)" d="M13.102 28.5C10.789 28.5 8.898 26.609 8.898 24.301 8.898 21.988 10.789 20.102 13.102 20.102 15.41 20.102 17.301 21.988 17.301 24.301 17.301 26.609 15.41 28.5 13.102 28.5ZM25 28.5C22.688 28.5 20.801 26.609 20.801 24.301 20.801 21.988 22.688 20.102 25 20.102 27.312 20.102 29.199 21.988 29.199 24.301 29.199 26.609 27.312 28.5 25 28.5ZM36.898 28.5C34.59 28.5 32.699 26.609 32.699 24.301 32.699 21.988 34.59 20.102 36.898 20.102 39.211 20.102 41.102 21.988 41.102 24.301 41.102 26.609 39.211 28.5 36.898 28.5ZM13.102 27.102C14.656 27.102 15.898 25.855 15.898 24.301 15.898 22.742 14.656 21.5 13.102 21.5 11.543 21.5 10.301 22.742 10.301 24.301 10.301 25.855 11.543 27.102 13.102 27.102ZM25 27.102C26.555 27.102 27.801 25.855 27.801 24.301 27.801 22.742 26.555 21.5 25 21.5 23.445 21.5 22.199 22.742 22.199 24.301 22.199 25.855 23.445 27.102 25 27.102ZM36.898 27.102C38.457 27.102 39.699 25.855 39.699 24.301 39.699 22.742 38.457 21.5 36.898 21.5 35.344 21.5 34.102 22.742 34.102 24.301 34.102 25.855 35.344 27.102 36.898 27.102ZM36.898 27.102"/>
</g>
</svg>
