<svg xmlns="http://www.w3.org/2000/svg" xmlns:xlink="http://www.w3.org/1999/xlink" version="1.1" width="50pt" height="50pt" viewBox="0 0 50 50">
<g>
<path fill="white" transform="matrix(1,0,0,-1,0,50)" d="M39.48 41.758C38.879 41.77 38.25 41.562 37.773 41.145 37.766 41.137 37.762 41.129 37.754 41.121L24.867 30.227C24.781 30.199 24.699 30.156 24.629 30.098L15.945 22.879C15.863 22.828 15.797 22.762 15.746 22.68L9.469 19.203 9.402 19.18 9.426 19.16C8.699 18.82 8.297 18.141 8.199 17.477 8.195 17.438 8.195 17.402 8.199 17.367 8.199 16.691 8.289 13.074 10.715 10.648 11.918 9.445 13.395 8.828 14.652 8.508 15.883 8.195 16.84 8.16 17.367 8.199 17.371 8.199 17.383 8.199 17.387 8.199 17.395 8.199 17.422 8.199 17.43 8.199V8.223C18.203 8.25 18.844 8.734 19.16 9.426L19.18 9.402 19.203 9.469 22.746 15.855C22.773 15.883 22.793 15.914 22.812 15.945L30.074 24.539C30.168 24.645 30.23 24.773 30.25 24.914L41.211 37.711C41.219 37.719 41.223 37.723 41.23 37.73 41.996 38.691 42.004 40.109 41.121 41.012 41.117 41.02 41.105 41.008 41.102 41.012 40.656 41.496 40.086 41.742 39.48 41.758ZM39.242 40.379C39.551 40.438 39.859 40.328 40.094 40.07 40.102 40.062 40.109 40.059 40.117 40.051 40.473 39.695 40.484 39.039 40.137 38.605L29.461 26.094 26.117 29.461 38.672 40.07C38.68 40.078 38.688 40.086 38.695 40.094 38.859 40.242 39.051 40.344 39.242 40.379ZM25.023 28.586 28.609 24.957 22.266 17.453 17.43 22.289ZM16.336 21.414 21.414 16.336 17.957 10.082C17.941 10.059 17.926 10.039 17.914 10.016 17.812 9.777 17.523 9.602 17.367 9.602 17.344 9.602 17.32 9.602 17.301 9.602 17.074 9.582 16.293 9.609 15.375 9.797L15.965 10.586C16.141 10.812 16.16 11.129 16.008 11.375 15.859 11.621 15.57 11.754 15.289 11.699 15.109 11.664 14.953 11.562 14.852 11.414L13.953 10.211C13.168 10.523 12.371 10.965 11.699 11.633 10.953 12.383 10.48 13.34 10.168 14.258L13.473 16.359C13.773 16.531 13.902 16.898 13.777 17.219 13.652 17.547 13.309 17.727 12.969 17.648 12.883 17.629 12.801 17.594 12.727 17.539L9.797 15.68C9.648 16.457 9.602 17.07 9.602 17.277 9.602 17.285 9.602 17.293 9.602 17.301 9.648 17.586 9.805 17.82 10.016 17.914 10.039 17.926 10.059 17.941 10.082 17.957ZM16.336 21.414"/>
</g>
</svg>
