<svg width="24" height="24" viewBox="0 0 24 24" fill="none" xmlns="http://www.w3.org/2000/svg">
<circle cx="12" cy="12" r="11.5" stroke="#fff"/>
<path d="M16.2995 8.84625L10.5416 14.6038C10.5029 14.6426 10.4569 14.6735 10.4062 14.6945C10.3556 14.7155 10.3012 14.7264 10.2464 14.7264C10.1915 14.7264 10.1372 14.7155 10.0866 14.6945C10.0359 14.6735 9.98989 14.6426 9.95118 14.6038L7.72451 12.375C7.6858 12.3361 7.63979 12.3053 7.58913 12.2843C7.53848 12.2632 7.48416 12.2524 7.4293 12.2524C7.37445 12.2524 7.32013 12.2632 7.26947 12.2843C7.21881 12.3053 7.17281 12.3361 7.1341 12.375V12.375C7.09523 12.4137 7.06439 12.4597 7.04335 12.5104C7.02231 12.561 7.01147 12.6154 7.01147 12.6702C7.01147 12.7251 7.02231 12.7794 7.04335 12.83C7.06439 12.8807 7.09523 12.9267 7.1341 12.9654L9.3616 15.1925C9.59657 15.427 9.91501 15.5588 10.247 15.5588C10.579 15.5588 10.8975 15.427 11.1324 15.1925L16.8899 9.43625C16.9287 9.39755 16.9595 9.35157 16.9805 9.30095C17.0015 9.25033 17.0123 9.19606 17.0123 9.14125C17.0123 9.08645 17.0015 9.03218 16.9805 8.98156C16.9595 8.93094 16.9287 8.88496 16.8899 8.84625C16.8512 8.80739 16.8052 8.77655 16.7546 8.75551C16.7039 8.73446 16.6496 8.72363 16.5947 8.72363C16.5399 8.72363 16.4855 8.73446 16.4349 8.75551C16.3842 8.77655 16.3382 8.80739 16.2995 8.84625Z" fill="#fff"/>
</svg>
