<svg width="24" height="24" viewBox="0 0 24 24" fill="none" xmlns="http://www.w3.org/2000/svg">
<circle cx="12" cy="12" r="11.5" stroke="#fff"/>
<g clip-path="url(#clip0_617_40)">
<path d="M14.9167 7.41663H9.08333C8.531 7.41729 8.00148 7.63699 7.61092 8.02755C7.22037 8.41811 7.00066 8.94763 7 9.49996V14.5C7.00066 15.0523 7.22037 15.5818 7.61092 15.9724C8.00148 16.3629 8.531 16.5826 9.08333 16.5833H14.9167C15.469 16.5826 15.9985 16.3629 16.3891 15.9724C16.7796 15.5818 16.9993 15.0523 17 14.5V9.49996C16.9993 8.94763 16.7796 8.41811 16.3891 8.02755C15.9985 7.63699 15.469 7.41729 14.9167 7.41663V7.41663ZM9.08333 8.24996H14.9167C15.1662 8.25045 15.4098 8.32559 15.6162 8.46571C15.8227 8.60583 15.9824 8.80452 16.075 9.03621L12.8842 12.2275C12.6493 12.4613 12.3314 12.5927 12 12.5927C11.6686 12.5927 11.3507 12.4613 11.1158 12.2275L7.925 9.03621C8.01756 8.80452 8.17734 8.60583 8.38377 8.46571C8.5902 8.32559 8.83384 8.25045 9.08333 8.24996V8.24996ZM14.9167 15.75H9.08333C8.75181 15.75 8.43387 15.6183 8.19945 15.3838C7.96503 15.1494 7.83333 14.8315 7.83333 14.5V10.125L10.5267 12.8166C10.9178 13.2067 11.4476 13.4258 12 13.4258C12.5524 13.4258 13.0822 13.2067 13.4733 12.8166L16.1667 10.125V14.5C16.1667 14.8315 16.035 15.1494 15.8006 15.3838C15.5661 15.6183 15.2482 15.75 14.9167 15.75Z" fill="#fff"/>
</g>
<defs>
<clipPath id="clip0_617_40">
<rect width="10" height="10" fill="white" transform="translate(7 7)"/>
</clipPath>
</defs>
</svg>
